<?xml version="1.0" standalone="no"?>
<!DOCTYPE svg PUBLIC "-//W3C//DTD SVG 20010904//EN"
 "http://www.w3.org/TR/2001/REC-SVG-20010904/DTD/svg10.dtd">
<svg version="1.0" xmlns="http://www.w3.org/2000/svg"
 width="500.000000pt" height="500.000000pt" viewBox="0 0 500.000000 500.000000"
 preserveAspectRatio="xMidYMid meet">
<metadata>
Created by potrace 1.11, written by Peter Selinger 2001-2013
</metadata>
<g transform="translate(0.000000,500.000000) scale(0.100000,-0.100000)"
fill="#000000" stroke="none">
<path d="M0 2500 l0 -2500 936 0 c888 0 936 1 929 18 -28 66 -40 333 -18 406
10 33 9 46 -4 75 -10 24 -17 31 -20 21 -3 -8 -14 -33 -26 -55 -25 -50 -27
-179 -2 -237 8 -21 11 -38 6 -38 -17 0 -41 99 -41 167 0 38 -4 73 -9 78 -5 6
-21 43 -35 83 -33 94 -36 193 -6 251 l21 39 -21 61 c-11 33 -20 71 -20 84 0
13 -9 50 -20 83 -14 42 -20 87 -20 158 0 84 -4 105 -25 147 -13 27 -36 61 -50
76 -32 35 -32 73 1 112 l25 30 -12 102 c-6 56 -9 132 -6 168 12 127 26 221 37
242 7 12 10 34 8 50 -2 15 0 27 5 26 13 -3 37 90 30 112 -4 9 -15 28 -25 43
-10 14 -18 33 -18 42 0 9 -3 15 -7 15 -23 -4 -24 4 -4 25 24 25 61 25 61 -1 0
-8 5 -11 10 -8 6 3 10 1 10 -4 0 -6 5 -11 11 -11 5 0 7 5 3 12 -4 6 2 18 12
26 16 13 17 14 2 9 -13 -5 -18 -1 -18 13 0 11 -8 24 -19 29 -10 6 -22 25 -26
43 l-8 33 -7 -30 c-7 -28 -8 -29 -9 -4 0 14 4 30 11 37 16 16 1 29 -20 16 -14
-9 -17 -7 -18 11 -2 20 2 22 62 20 51 -2 64 1 64 13 0 12 3 12 20 -3 16 -15
22 -16 35 -5 9 7 19 10 22 6 4 -4 1 -11 -6 -15 -7 -5 -9 -11 -4 -14 6 -4 20 3
32 14 14 14 28 18 39 13 15 -6 15 -8 -3 -12 -21 -4 -35 -20 -35 -37 0 -5 4 -3
10 5 7 12 14 12 43 2 43 -16 48 -15 40 4 -4 12 0 15 18 14 40 -4 49 -1 43 14
-3 8 -1 17 5 21 10 6 15 -10 14 -43 -1 -6 4 -12 9 -12 5 0 8 15 6 33 -3 28 1
34 32 50 l35 19 -44 -5 c-41 -5 -42 -5 -21 10 12 8 33 13 46 10 23 -4 25 -2
23 27 -5 76 -1 86 32 86 25 0 29 -3 21 -13 -15 -18 -4 -57 16 -57 12 0 13 3 4
12 -7 7 -12 19 -12 28 0 12 2 12 9 2 7 -11 9 -10 14 3 4 9 3 13 -3 10 -6 -3
-10 1 -10 9 0 11 -9 16 -27 16 -16 0 -35 5 -43 11 -11 7 -3 9 31 7 29 -2 45 1
42 7 -2 6 -19 9 -37 7 -43 -5 -49 7 -18 37 15 13 23 17 19 8 -7 -19 13 -28 45
-20 33 8 48 22 41 39 -3 8 1 14 11 14 9 0 16 5 16 10 0 6 -7 10 -16 10 -8 0
-12 5 -9 11 9 14 -3 59 -16 59 -12 0 -39 25 -39 36 0 5 5 3 12 -4 13 -13 48
-17 48 -5 0 3 -7 14 -16 24 -14 15 -13 19 11 43 31 31 35 32 35 6 0 -11 5 -20
10 -20 6 0 10 9 10 20 0 11 5 20 10 20 6 0 10 -16 10 -35 0 -50 17 -43 21 9 2
24 0 42 -5 39 -4 -3 -12 1 -17 8 -8 12 -11 12 -18 -1 -6 -8 -13 -11 -17 -7 -4
3 -2 13 5 20 6 8 12 44 12 79 1 62 2 66 25 66 22 0 24 -5 24 -49 0 -49 13 -66
23 -29 3 11 10 20 17 20 7 0 14 -9 17 -20 9 -32 23 -23 23 15 0 34 1 35 40 35
22 0 40 5 40 11 0 5 5 7 11 4 6 -4 8 -13 5 -20 -3 -8 2 -19 10 -25 12 -11 14
-6 14 29 0 48 -18 72 -47 65 -14 -4 -22 3 -33 30 -7 20 -17 36 -21 36 -4 0
-10 7 -13 16 -4 10 -2 13 6 8 8 -5 9 0 5 17 -4 13 -7 33 -7 44 -1 20 -1 20
-15 0 -11 -14 -14 -36 -11 -85 5 -61 5 -62 -3 -15 -5 28 -14 61 -20 75 -10 22
-11 20 -7 -19 3 -30 1 -40 -6 -33 -6 6 -11 29 -11 51 0 49 -14 55 -20 9 -2
-18 -3 -14 -2 10 2 36 -1 45 -19 52 -11 5 -15 9 -8 9 17 1 15 21 -3 21 -8 0
-15 6 -15 13 0 18 -37 47 -60 47 -10 0 -22 5 -25 10 -3 6 -18 10 -33 10 -25 1
-26 2 -9 15 18 13 17 14 -5 18 -18 3 16 7 67 7 3 0 5 -3 4 -7 0 -5 -7 -7 -15
-5 -8 2 -14 -2 -14 -8 0 -17 26 -11 46 11 18 20 26 21 139 16 66 -3 141 -10
168 -15 l47 -9 0 44 c0 25 6 51 14 59 19 18 56 18 56 0 0 -8 7 -17 16 -20 9
-4 14 -9 11 -13 -4 -3 -2 -12 4 -20 18 -21 -8 -16 -41 7 -28 20 -29 20 -35 1
-10 -33 13 -157 35 -191 7 -11 10 5 10 53 0 72 9 82 41 45 22 -28 24 -42 5
-57 -31 -26 18 -101 66 -101 16 0 17 3 7 22 -9 18 -8 24 6 34 16 12 16 17 2
61 -8 26 -20 92 -27 146 -13 101 -12 106 23 172 48 89 59 150 34 182 -5 7 -6
16 -3 21 3 5 -3 21 -14 34 -10 14 -19 33 -19 44 0 37 -13 109 -21 112 -4 1 -5
14 -2 27 7 37 -8 115 -21 115 -9 0 -11 -13 -9 -40 3 -26 -1 -44 -11 -55 -22
-22 -33 -19 -13 4 14 16 15 19 2 24 -9 4 -16 -3 -20 -19 -4 -13 -13 -24 -22
-24 -8 0 -12 -5 -9 -10 4 -6 11 -8 16 -5 17 11 9 -12 -11 -30 -11 -10 -23 -36
-27 -57 -4 -27 -10 -37 -19 -34 -19 7 -30 -14 -13 -25 10 -6 11 -9 2 -9 -7 0
-13 -7 -13 -16 0 -8 4 -12 10 -9 6 3 7 -1 4 -9 -3 -9 -11 -13 -17 -9 -6 4 -8
0 -4 -9 3 -9 0 -21 -6 -27 -6 -6 -7 -11 -3 -11 5 0 3 -7 -4 -15 -7 -8 -16 -13
-20 -10 -4 2 -5 -7 -2 -20 2 -14 8 -22 13 -19 5 3 9 -2 9 -10 0 -8 -6 -13 -12
-11 -9 4 -13 -5 -12 -27 0 -42 -4 -51 -20 -36 -11 10 -11 15 1 26 18 18 16 31
-4 40 -10 4 -19 15 -19 24 -1 10 3 15 8 11 7 -4 9 6 6 26 -2 17 -1 31 3 31 3
0 9 9 12 20 3 11 2 20 -2 20 -4 0 -8 7 -8 15 0 8 4 15 9 15 5 0 6 5 3 10 -3 6
2 10 12 11 11 0 13 3 5 6 -6 2 -10 9 -6 14 3 5 0 9 -5 9 -6 0 -11 10 -11 23 0
13 3 17 8 11 4 -7 19 2 42 26 29 30 34 43 32 72 -3 36 -1 37 51 39 9 0 17 7
17 14 0 9 -6 12 -15 9 -8 -4 -15 -1 -15 5 0 6 7 11 16 11 13 0 15 7 11 30 -5
24 -4 28 10 23 9 -4 14 -2 11 3 -3 5 9 16 28 25 18 9 32 13 29 10 -2 -4 0 -13
5 -21 5 -9 8 0 8 26 0 67 0 68 17 54 12 -10 16 -9 20 2 10 25 32 17 27 -9 -2
-13 -8 -25 -12 -28 -11 -7 0 -45 12 -45 5 0 6 10 2 22 -6 20 -5 21 10 9 14
-12 16 -10 16 17 0 24 4 30 15 26 11 -5 13 -2 8 12 -6 16 -5 17 9 4 15 -14 14
-16 -4 -26 -20 -11 -20 -11 6 -18 22 -5 26 -11 20 -28 -4 -14 -3 -18 5 -13 7
4 11 16 9 28 -2 16 2 22 14 21 10 -1 16 1 14 5 -3 4 -1 12 3 19 5 9 14 6 33
-11 14 -13 36 -27 47 -30 20 -5 21 -2 15 29 -9 48 9 42 30 -11 11 -25 23 -45
28 -45 5 0 8 -6 5 -12 -2 -7 7 -30 20 -50 12 -21 23 -42 23 -48 0 -15 -16 -12
-30 5 -15 18 -34 20 -24 3 6 -10 4 -10 -7 0 -18 17 -30 15 -22 -4 4 -11 13
-14 29 -10 13 4 24 2 24 -3 0 -6 18 -15 40 -21 42 -11 85 -61 75 -87 -2 -7 0
-13 6 -13 5 0 13 -10 18 -22 11 -29 23 -77 15 -60 -9 20 -27 14 -21 -8 3 -11
0 -23 -6 -27 -7 -3 -9 -3 -5 1 8 9 -22 46 -38 46 -7 0 -15 7 -18 16 -4 9 -9
14 -12 11 -3 -3 6 -24 21 -46 l26 -42 -38 -16 c-37 -16 -37 -16 -13 -23 23 -6
23 -7 -14 -18 -22 -6 -42 -10 -44 -7 -2 2 -15 -7 -29 -21 -13 -13 -29 -24 -34
-24 -23 0 -70 -42 -67 -60 2 -10 -10 -30 -25 -44 -23 -22 -26 -29 -17 -47 8
-15 8 -24 0 -34 -8 -10 -9 -19 -1 -32 6 -10 11 -15 11 -10 0 4 13 1 30 -8 16
-8 38 -15 48 -15 22 0 107 -45 136 -72 11 -10 25 -18 32 -18 21 0 67 -28 90
-55 l23 -27 -52 -51 c-29 -29 -56 -50 -62 -49 -5 2 -7 0 -3 -4 4 -4 -6 -22
-22 -41 -17 -18 -30 -41 -30 -51 0 -9 -6 -28 -13 -42 -7 -14 -13 -38 -13 -55
1 -25 5 -29 23 -27 31 4 35 -11 7 -25 -17 -8 -24 -8 -24 0 0 6 -3 7 -7 4 -3
-4 -12 -2 -20 5 -8 6 -17 7 -22 2 -11 -11 -21 -104 -12 -104 4 0 8 -11 9 -25
1 -18 -2 -23 -13 -19 -12 5 -14 0 -9 -25 5 -26 3 -31 -12 -31 -15 0 -16 -2 -5
-9 11 -7 9 -10 -9 -13 -22 -3 -23 -4 -7 -20 9 -9 17 -19 17 -22 0 -4 16 -29
35 -56 19 -27 35 -57 35 -65 0 -9 7 -18 15 -21 8 -4 15 -11 15 -16 0 -11 55
-68 65 -68 9 0 65 -60 65 -69 0 -3 10 -12 21 -19 16 -10 18 -17 10 -25 -16
-16 -14 -27 4 -21 9 4 15 0 15 -10 0 -9 5 -16 11 -16 6 0 4 -6 -4 -14 -8 -9
-24 -12 -37 -9 -18 5 -21 2 -18 -13 2 -10 10 -18 16 -17 7 2 12 -3 12 -10 0
-8 -12 -14 -30 -14 -24 0 -27 3 -19 14 8 9 8 13 0 13 -6 0 -11 -3 -12 -7 0 -5
-2 -18 -3 -30 -2 -14 2 -19 11 -16 7 3 13 1 13 -4 0 -6 10 -14 22 -20 20 -9
19 -10 -10 -10 -21 0 -28 3 -20 9 7 4 9 8 3 8 -19 0 -38 -18 -31 -29 4 -6 -1
-25 -10 -43 -18 -34 -26 -70 -13 -63 9 6 21 -24 13 -36 -3 -5 -14 -4 -27 2
-22 12 -22 12 -3 -9 10 -12 23 -19 28 -16 4 3 7 1 6 -4 -6 -21 156 -122 170
-107 3 3 -1 5 -9 5 -8 1 -2 8 14 16 38 20 34 26 -7 9 -30 -13 -34 -13 -32 0 3
19 16 32 16 16 0 -8 5 -9 18 -2 11 6 33 6 57 1 28 -6 42 -5 47 3 4 6 9 9 11 7
16 -21 37 -56 37 -65 0 -5 -4 -4 -9 3 -6 10 -10 7 -13 -12 -6 -30 4 -35 74
-37 88 -4 74 -19 -37 -43 -11 -2 3 -4 32 -5 28 0 53 -5 55 -10 2 -4 14 -12 27
-16 20 -6 23 -5 17 10 -5 15 -4 16 8 6 11 -9 20 -10 35 -2 25 14 34 14 25 0
-3 -6 12 1 34 16 23 15 46 24 51 20 6 -3 11 -1 11 4 0 6 15 17 34 25 23 9 36
22 38 38 2 12 9 22 16 21 7 -2 12 9 12 27 0 17 -4 30 -10 30 -5 0 -10 -7 -10
-16 0 -8 -4 -12 -10 -9 -6 3 -10 1 -10 -4 0 -6 -5 -11 -10 -11 -6 0 -21 -11
-33 -25 -17 -19 -25 -23 -37 -14 -12 9 -12 10 4 5 14 -5 17 -2 12 11 -4 10 -4
15 -1 12 8 -9 75 57 75 75 0 8 7 22 16 31 19 18 16 75 -10 175 -21 80 -29 230
-13 227 10 -2 15 21 18 75 0 19 29 48 29 29 0 -6 -4 -11 -10 -11 -5 0 -10 -4
-10 -10 0 -5 7 -6 17 -3 12 5 14 3 8 -8 -7 -11 -5 -11 11 1 24 19 34 32 29 40
-2 4 9 19 24 34 21 20 31 24 36 15 5 -7 4 -10 -1 -7 -5 3 -15 0 -22 -8 -7 -8
-10 -14 -7 -14 15 0 52 25 73 49 22 25 23 36 7 89 -5 14 -3 22 4 22 6 0 16
-10 21 -22 8 -21 9 -21 10 -3 0 17 2 17 10 5 8 -13 10 -12 10 3 0 9 5 17 10
17 6 0 10 -7 10 -15 0 -16 21 -20 35 -6 12 10 90 54 168 93 31 16 57 32 57 34
0 9 -35 -1 -48 -13 -16 -15 -52 0 -52 21 0 8 -7 17 -16 20 -12 5 -15 2 -12
-12 4 -15 0 -19 -16 -18 -11 1 -20 7 -18 14 2 9 -3 10 -15 3 -30 -15 -78 -18
-78 -3 0 7 -7 17 -15 22 -10 7 -11 10 -2 10 10 0 10 4 0 20 -15 24 -28 26 -28
5 0 -22 -17 -18 -23 4 -3 15 -13 19 -36 19 -17 -1 -35 2 -39 7 -4 4 2 5 13 3
11 -2 31 6 45 19 20 19 26 20 40 9 8 -7 21 -11 28 -9 6 3 12 0 12 -5 0 -6 -6
-13 -12 -15 -7 -3 7 -4 31 -3 25 1 65 -3 90 -10 34 -9 50 -9 60 0 9 6 12 7 9
0 -7 -11 87 -13 98 -1 13 13 -5 20 -20 8 -11 -10 -18 -7 -31 11 l-17 23 7 -23
c6 -22 5 -23 -14 -13 -37 20 -18 48 27 42 14 -1 32 6 42 17 18 19 17 32 -3 32
-6 0 -7 -3 -4 -7 11 -10 -30 -34 -47 -27 -9 3 -27 -1 -41 -10 -14 -9 -25 -12
-25 -7 0 12 20 28 45 35 12 3 9 4 -7 2 -16 -2 -28 0 -28 5 0 4 15 10 33 12 28
3 26 4 -10 5 -24 1 -43 -2 -43 -8 0 -5 -5 -10 -12 -10 -8 0 -9 3 -1 11 6 6 7
24 4 42 -6 27 -12 32 -40 35 -22 2 -31 0 -26 -8 4 -6 16 -8 28 -5 20 5 20 5 4
-5 -25 -16 -47 -5 -48 22 -1 18 -2 19 -6 5 -5 -21 -27 -18 -29 4 0 8 -2 26 -2
42 -1 16 -8 27 -16 27 -17 0 -19 57 -3 67 6 3 7 1 4 -4 -4 -6 -1 -15 6 -21 8
-7 19 -1 35 19 13 16 18 29 12 29 -6 0 -8 5 -5 10 4 6 11 8 16 5 5 -4 9 -1 9
4 0 6 -4 11 -10 11 -5 0 -10 9 -10 20 0 11 -5 29 -12 40 -10 15 -9 26 5 55 9
20 17 43 17 51 0 8 4 13 9 10 5 -4 7 4 3 16 -3 14 -1 19 6 14 25 -15 34 123
13 202 -13 46 -12 222 0 222 4 0 8 8 8 18 0 17 8 130 10 145 1 10 54 -3 62
-16 4 -5 13 -6 20 -1 7 4 26 9 42 11 24 3 28 0 22 -14 -5 -15 -4 -16 7 -5 11
12 9 17 -9 29 -28 19 -29 30 -5 36 12 3 11 5 -6 6 -16 1 -22 6 -20 18 3 17
-25 30 -71 32 -16 1 -21 -3 -18 -13 4 -11 1 -11 -19 -2 -29 13 -30 23 -4 31
11 4 17 11 14 17 -4 6 -9 5 -15 -3 -6 -10 -11 -11 -19 -3 -9 9 -9 14 -1 18 17
11 13 34 -6 39 -17 4 -17 5 0 6 9 0 17 7 17 15 0 8 8 17 18 19 9 3 0 5 -20 6
-31 1 -38 5 -38 20 0 12 8 21 23 24 14 2 11 4 -8 3 -25 -1 -30 3 -29 22 0 12
-5 22 -13 22 -7 0 -13 4 -13 9 0 4 11 6 25 3 20 -3 25 0 24 14 0 11 -3 14 -6
7 -7 -18 -23 -16 -23 2 0 8 -5 15 -11 15 -5 0 -7 -4 -4 -10 3 -5 -1 -10 -10
-10 -9 0 -14 4 -11 9 3 5 -1 12 -10 15 -11 4 -14 13 -11 27 4 13 -2 27 -14 37
-10 9 -19 20 -19 25 0 16 -30 38 -42 31 -7 -4 -10 -3 -5 1 8 9 -70 95 -86 95
-4 0 -5 -5 -1 -12 5 -7 3 -8 -6 -3 -10 6 -9 11 5 22 18 12 18 13 -2 13 -11 0
-23 7 -27 15 -3 8 -15 15 -27 15 -13 0 -19 5 -16 13 4 10 -21 13 -112 15 -71
1 -111 -1 -102 -7 7 -5 11 -13 8 -18 -3 -5 -1 -15 5 -23 8 -12 8 -11 3 5 -6
20 -6 20 13 0 17 -18 18 -21 3 -29 -9 -6 -24 -11 -33 -11 -14 -1 -15 1 -7 12
9 10 8 13 -4 13 -11 0 -14 8 -11 30 4 21 1 30 -9 30 -10 0 -13 -9 -11 -27 4
-27 3 -27 -4 -3 l-8 25 -149 2 c-127 1 -153 -2 -169 -15 -16 -14 -18 -14 -14
-2 4 11 -2 15 -21 16 -14 1 -20 -1 -13 -3 16 -6 5 -23 -15 -23 -9 0 -13 6 -9
15 5 13 -25 15 -232 15 -157 0 -232 -4 -222 -10 13 -8 13 -10 -2 -10 -9 0 -20
4 -23 10 -4 6 -198 10 -550 10 l-544 0 5 -28 c3 -20 2 -23 -6 -12 -5 8 -10 10
-10 5 0 -6 5 -16 12 -23 9 -9 8 -12 -8 -12 -14 0 -16 -2 -5 -9 9 -6 10 -11 2
-15 -6 -4 -11 -2 -11 4 0 7 -7 10 -17 6 -15 -5 -14 -3 2 10 l20 15 -20 12
c-20 11 -19 11 3 16 13 4 23 11 23 16 -1 15 -53 18 -62 3 -7 -10 -9 -10 -9 -1
0 10 -168 13 -805 13 l-805 0 0 -2500z m1724 2475 c3 -8 1 -15 -4 -15 -6 0
-10 7 -10 15 0 8 2 15 4 15 2 0 6 -7 10 -15z m2192 -24 c8 -7 12 -16 9 -19 -3
-3 -11 0 -17 6 -17 17 -31 15 -24 -3 5 -13 2 -14 -17 -3 -19 11 -20 13 -4 16
13 3 16 9 11 24 -7 22 -4 21 42 -21z m-1816 25 c0 -3 -4 -8 -10 -11 -5 -3 -10
-1 -10 4 0 6 5 11 10 11 6 0 10 -2 10 -4z m1117 -23 c0 -10 -5 -21 -11 -25 -7
-5 -4 -8 7 -8 10 0 15 -5 12 -10 -4 -6 -12 -9 -18 -8 -7 1 -21 -3 -32 -9 -15
-8 -26 -8 -44 1 -15 9 -20 16 -12 20 6 4 11 1 11 -6 0 -7 7 -2 16 10 16 23 34
29 34 12 0 -5 -7 -10 -15 -10 -8 0 -15 -4 -15 -10 0 -14 13 -13 28 2 18 18 15
46 -5 51 -10 3 -4 5 13 6 23 1 31 -3 31 -16z m47 8 c3 -5 -3 -11 -13 -14 -14
-3 -18 -1 -14 9 6 16 19 18 27 5z m-1934 -11 c0 -5 -4 -10 -10 -10 -5 0 -10 5
-10 10 0 6 5 10 10 10 6 0 10 -4 10 -10z m271 -23 c-17 -17 -13 -31 4 -17 9 7
18 10 22 6 3 -3 1 -6 -5 -6 -6 0 -9 -8 -6 -17 4 -14 3 -15 -4 -5 -5 8 -13 13
-18 12 -5 0 -10 8 -12 20 -3 20 -4 20 -21 -1 -14 -17 -20 -19 -26 -9 -5 8 -4
11 3 6 6 -3 16 2 21 13 7 13 17 17 32 14 14 -4 17 -9 10 -16z m1683 -8 c-3 -5
-10 -7 -15 -3 -5 3 -7 10 -3 15 3 5 10 7 15 3 5 -3 7 -10 3 -15z m-181 -4 c-3
-9 -8 -14 -10 -11 -3 3 -2 9 2 15 9 16 15 13 8 -4z m-1626 -1 c-3 -3 -12 -4
-19 -1 -8 3 -5 6 6 6 11 1 17 -2 13 -5z m2468 -4 c3 -5 -1 -10 -9 -10 -9 0
-16 5 -16 10 0 6 4 10 9 10 6 0 13 -4 16 -10z m-2420 -28 c-3 -3 -15 -6 -27
-7 -20 -2 -20 -1 -3 11 17 13 43 9 30 -4z m203 0 c2 -7 -2 -10 -12 -6 -9 3
-16 11 -16 16 0 13 23 5 28 -10z m287 8 c-3 -5 -12 -10 -18 -10 -7 0 -6 4 3
10 19 12 23 12 15 0z m232 -12 c-3 -8 -6 -5 -6 6 -1 11 2 17 5 13 3 -3 4 -12
1 -19z m773 12 c8 -5 11 -10 5 -10 -5 0 -17 5 -25 10 -8 5 -10 10 -5 10 6 0
17 -5 25 -10z m-1590 -25 c-7 -8 -18 -15 -24 -15 -6 0 -2 7 8 15 25 19 32 19
16 0z m170 0 c0 -8 -6 -15 -13 -15 -8 0 -14 7 -14 15 0 8 6 15 14 15 7 0 13
-7 13 -15z m54 4 c11 17 26 13 26 -6 0 -14 -2 -15 -9 -4 -6 9 -11 10 -15 2 -9
-13 -26 -5 -26 12 0 8 3 8 9 -2 6 -9 11 -10 15 -2z m563 -24 c-18 -19 -29 -7
-16 17 8 15 13 17 19 8 4 -7 3 -19 -3 -25z m-753 0 c-7 -17 -20 -20 -29 -6 -3
5 3 12 12 14 10 3 19 5 20 6 1 0 0 -6 -3 -14z m-74 -5 c18 -12 2 -12 -25 0
-13 6 -15 9 -5 9 8 0 22 -4 30 -9z m154 -2 c-3 -4 -11 -5 -19 -1 -21 7 -19 12
4 10 11 0 18 -5 15 -9z m1536 8 c0 -2 -7 -7 -16 -10 -8 -3 -12 -2 -9 4 6 10
25 14 25 6z m72 -20 c4 -19 1 -23 -21 -24 -42 0 -44 -1 -31 -17 11 -13 10 -14
-4 -9 -9 3 -16 9 -16 13 0 14 41 51 51 46 5 -4 9 -1 9 4 0 20 8 11 12 -13z
m-1946 -5 c-4 -5 0 -12 6 -14 8 -3 6 -6 -4 -6 -10 -1 -18 6 -18 14 0 8 5 15
11 15 5 0 8 -4 5 -9z m104 -1 c0 -5 -4 -10 -9 -10 -6 0 -13 5 -16 10 -3 6 1
10 9 10 9 0 16 -4 16 -10z m1610 -20 c0 -22 -5 -30 -17 -30 -14 0 -15 2 -5 9
8 4 13 11 13 15 -3 18 0 36 4 36 3 0 5 -13 5 -30z m118 21 c10 -6 7 -10 -11
-13 -18 -4 -24 -1 -20 9 6 15 13 16 31 4z m-1984 -31 c-6 -6 -19 -7 -30 -3
-17 6 -17 8 6 13 29 8 38 4 24 -10z m243 -32 c-15 -41 -37 -67 -37 -44 0 9 5
16 11 16 6 0 9 9 6 20 -4 16 11 36 30 40 1 0 -4 -15 -10 -32z m1693 17 c0 -8
-4 -15 -10 -15 -5 0 -10 7 -10 15 0 8 5 15 10 15 6 0 10 -7 10 -15z m-1770
-25 c0 -5 -7 -10 -15 -10 -8 0 -15 5 -15 10 0 6 7 10 15 10 8 0 15 -4 15 -10z
m190 0 c0 -5 -5 -10 -11 -10 -5 0 -7 5 -4 10 3 6 8 10 11 10 2 0 4 -4 4 -10z
m1680 -20 c0 -5 -7 -10 -15 -10 -8 0 -15 5 -15 10 0 6 7 10 15 10 8 0 15 -4
15 -10z m-1780 -20 c0 -5 -5 -10 -11 -10 -5 0 -7 5 -4 10 3 6 8 10 11 10 2 0
4 -4 4 -10z m1610 -10 c0 -5 -5 -10 -11 -10 -5 0 -7 5 -4 10 3 6 8 10 11 10 2
0 4 -4 4 -10z m-1850 -15 c0 -9 -9 -15 -22 -15 -21 0 -21 0 -2 15 24 18 24 18
24 0z m260 1 c0 -3 -4 -8 -10 -11 -5 -3 -10 -1 -10 4 0 6 5 11 10 11 6 0 10
-2 10 -4z m1553 -16 c-3 -11 -7 -20 -9 -20 -2 0 -4 9 -4 20 0 11 4 20 9 20 5
0 7 -9 4 -20z m-1578 -10 c3 -5 2 -10 -4 -10 -5 0 -13 5 -16 10 -3 6 -2 10 4
10 5 0 13 -4 16 -10z m1583 -45 c-3 -3 -9 2 -12 12 -6 14 -5 15 5 6 7 -7 10
-15 7 -18z m92 5 c0 -5 -5 -10 -11 -10 -5 0 -7 5 -4 10 3 6 8 10 11 10 2 0 4
-4 4 -10z m184 -42 c8 -5 7 -8 -1 -8 -7 0 -13 -7 -13 -16 0 -9 5 -12 12 -8 6
4 8 3 5 -3 -4 -6 0 -16 8 -23 8 -7 15 -17 15 -22 0 -6 -6 -6 -14 1 -25 21 -7
-26 20 -52 13 -12 24 -29 24 -38 0 -8 7 -24 15 -35 27 -36 15 -39 -16 -4 -17
19 -48 53 -68 75 -35 37 -67 102 -57 113 3 2 16 -9 31 -24 l25 -29 -9 26 c-7
18 -6 30 2 39 10 10 8 11 -8 6 -15 -6 -17 -4 -8 5 6 6 9 19 6 28 -3 10 0 8 8
-4 7 -11 17 -23 23 -27z m-2234 -10 c0 -5 8 -8 18 -8 19 0 24 -31 8 -47 -4 -5
-7 -3 -6 2 5 24 -1 37 -15 31 -8 -3 -15 0 -15 7 0 9 -2 9 -8 0 -6 -9 -11 -7
-19 6 -10 16 -9 19 13 17 13 0 24 -4 24 -8z m2294 -24 c9 -22 -3 -32 -14 -14
-12 19 -12 30 -1 30 5 0 12 -7 15 -16z m-2356 -46 c7 -7 12 -8 12 -2 0 6 14
10 30 10 17 0 30 -3 30 -8 0 -8 -9 -10 -47 -11 -23 0 -74 22 -52 22 8 1 20 -4
27 -11z m3402 -8 c0 -5 -2 -10 -4 -10 -3 0 -8 5 -11 10 -3 6 -1 10 4 10 6 0
11 -4 11 -10z m-3420 -4 c0 -3 -4 -8 -10 -11 -5 -3 -10 -1 -10 4 0 6 5 11 10
11 6 0 10 -2 10 -4z m130 -26 c0 -5 -2 -10 -4 -10 -3 0 -8 5 -11 10 -3 6 -1
10 4 10 6 0 11 -4 11 -10z m86 -20 c0 -11 -4 -20 -8 -20 -10 0 -11 24 -1 33 9
9 9 10 9 -13z m-218 -20 c-15 -24 -19 -21 -11 8 3 12 9 19 14 16 5 -3 3 -14
-3 -24z m48 3 c-4 -4 -12 -1 -19 7 -9 10 -9 11 1 6 7 -4 12 -2 13 6 0 11 2 11
6 0 3 -7 2 -16 -1 -19z m44 23 c0 -2 -7 -7 -16 -10 -8 -3 -12 -2 -9 4 6 10 25
14 25 6z m-3 -48 c-3 -8 -6 -5 -6 6 -1 11 2 17 5 13 3 -3 4 -12 1 -19z m73
-30 c0 -12 -7 -18 -21 -18 -15 0 -19 -5 -15 -15 4 -12 2 -13 -15 -2 -16 10
-17 13 -4 15 10 2 15 15 15 39 0 35 0 36 20 18 11 -10 20 -26 20 -37z m3390
38 c0 -11 -19 -15 -25 -6 -3 5 1 10 9 10 9 0 16 -2 16 -4z m-3340 -16 c0 -5
-8 -10 -17 -10 -15 0 -16 2 -3 10 19 12 20 12 20 0z m970 -19 c0 -6 -4 -13
-10 -16 -5 -3 -10 1 -10 9 0 9 5 16 10 16 6 0 10 -4 10 -9z m2330 -3 c0 -4 -7
-8 -15 -8 -8 0 -15 4 -15 8 0 5 7 9 15 9 8 0 15 -4 15 -9z m-3980 -22 c0 -2
-7 -6 -15 -10 -8 -3 -15 -1 -15 4 0 6 7 10 15 10 8 0 15 -2 15 -4z m1925 -15
c-3 -6 -11 -11 -17 -11 -6 0 -6 6 2 15 14 17 26 13 15 -4z m2100 9 c3 -6 -1
-7 -9 -4 -18 7 -21 14 -7 14 6 0 13 -4 16 -10z m-3605 -20 c0 -5 -2 -10 -4
-10 -3 0 -8 5 -11 10 -3 6 -1 10 4 10 6 0 11 -4 11 -10z m1190 -20 c0 -11 -2
-20 -4 -20 -2 0 -6 9 -9 20 -3 11 -1 20 4 20 5 0 9 -9 9 -20z m550 -19 c-6
-20 -5 -32 3 -35 7 -3 2 -3 -10 0 -14 3 -23 1 -23 -6 0 -6 -4 -8 -10 -5 -5 3
-10 2 -10 -4 0 -5 6 -12 13 -15 10 -5 10 -7 0 -12 -7 -3 -13 -11 -13 -18 0 -7
-8 -22 -17 -33 -16 -17 -21 -18 -43 -6 -23 12 -16 18 18 14 6 -1 12 3 12 9 0
6 -4 8 -10 5 -5 -3 -10 -2 -10 4 0 5 10 11 22 13 12 2 23 9 26 17 3 8 0 11 -6
7 -6 -3 -13 -2 -16 3 -9 14 4 41 20 41 8 0 14 7 14 16 0 8 5 12 10 9 6 -4 8
-11 5 -16 -4 -5 -1 -9 4 -9 6 0 11 11 11 25 0 14 4 25 9 25 6 0 6 -12 1 -29z
m40 4 c7 -9 8 -15 2 -15 -5 0 -12 7 -16 15 -3 8 -4 15 -2 15 2 0 9 -7 16 -15z
m130 5 c0 -5 -4 -10 -10 -10 -5 0 -10 5 -10 10 0 6 5 10 10 10 6 0 10 -4 10
-10z m-453 -32 c-3 -8 -6 -5 -6 6 -1 11 2 17 5 13 3 -3 4 -12 1 -19z m-280
-10 c-3 -8 -6 -5 -6 6 -1 11 2 17 5 13 3 -3 4 -12 1 -19z m27 7 c3 -8 1 -15
-4 -15 -6 0 -10 7 -10 15 0 8 2 15 4 15 2 0 6 -7 10 -15z m236 1 c0 -3 -4 -8
-10 -11 -5 -3 -10 -1 -10 4 0 6 5 11 10 11 6 0 10 -2 10 -4z m133 -11 c-3 -9
-8 -14 -10 -11 -3 3 -2 9 2 15 9 16 15 13 8 -4z m74 -8 c-2 -7 -10 -12 -18
-12 -8 0 -17 -4 -21 -10 -5 -6 -8 -5 -8 3 0 7 -4 10 -10 7 -5 -3 -10 -2 -10 3
0 14 6 17 40 19 21 2 30 -2 27 -10z m-147 -1 c0 -2 -13 -6 -30 -8 -16 -3 -30
-1 -30 4 0 4 14 8 30 8 17 0 30 -2 30 -4z m57 -14 c6 -11 8 -24 3 -33 -11 -16
-15 -12 -24 24 -7 31 4 36 21 9z m57 -50 c-26 -25 -54 -34 -54 -19 -1 8 -5 7
-13 -3 -7 -8 -21 -22 -31 -30 -18 -14 -19 -14 -8 6 13 24 38 38 63 35 9 -1 22
5 29 14 7 8 17 15 23 15 6 0 2 -8 -9 -18z m90 -45 c-7 -18 -34 -24 -34 -7 0 6
5 10 10 10 6 0 10 8 10 17 0 12 3 14 10 7 6 -6 8 -18 4 -27z m-1458 11 c5 -7
2 -9 -9 -5 -10 4 -14 2 -11 -6 2 -7 -5 -12 -20 -12 -23 0 -23 1 -8 17 20 20
38 22 48 6z m1144 8 c0 -3 -4 -8 -10 -11 -5 -3 -10 -1 -10 4 0 6 5 11 10 11 6
0 10 -2 10 -4z m229 -20 c9 -11 9 -16 -1 -22 -7 -4 -9 -3 -5 1 4 5 -3 15 -15
22 -17 9 -19 12 -7 13 9 0 22 -6 28 -14z m51 -30 c0 -2 -7 -7 -16 -10 -8 -3
-12 -2 -9 4 6 10 25 14 25 6z m40 -6 c0 -5 -2 -10 -4 -10 -3 0 -8 5 -11 10 -3
6 -1 10 4 10 6 0 11 -4 11 -10z m-30 -30 c0 -5 -2 -10 -4 -10 -3 0 -8 5 -11
10 -3 6 -1 10 4 10 6 0 11 -4 11 -10z m-1540 -49 c0 -22 -36 -35 -44 -16 -5
15 12 35 31 35 7 0 13 -8 13 -19z m1543 12 c-7 -2 -19 -2 -25 0 -7 3 -2 5 12
5 14 0 19 -2 13 -5z m-1423 -8 c0 -7 -30 -13 -34 -7 -3 4 4 9 15 9 10 1 19 0
19 -2z m1131 -18 c-10 -9 -11 -8 -5 6 3 10 9 15 12 12 3 -3 0 -11 -7 -18z
m-246 -9 c-7 -22 -6 -22 7 -4 14 17 15 17 21 2 4 -10 3 -15 -3 -11 -6 3 -10
-1 -10 -11 0 -13 -3 -14 -15 -4 -17 14 -20 50 -4 50 6 0 8 -9 4 -22z m-949
-33 c-7 -20 -26 -19 -26 1 0 8 5 12 10 9 6 -3 10 2 11 12 0 11 3 13 6 5 3 -7
2 -19 -1 -27z m444 19 c0 -8 -4 -12 -10 -9 -5 3 -10 10 -10 16 0 5 5 9 10 9 6
0 10 -7 10 -16z m1620 2 c0 -2 -7 -7 -16 -10 -8 -3 -12 -2 -9 4 6 10 25 14 25
6z m-660 -21 c0 -8 -4 -15 -10 -15 -5 0 -7 7 -4 15 4 8 8 15 10 15 2 0 4 -7 4
-15z m-956 -52 c6 -18 4 -22 -8 -17 -10 4 -16 18 -16 38 1 33 11 24 24 -21z
m985 -12 c-16 -54 -24 -46 -9 9 6 23 14 40 16 37 3 -3 0 -24 -7 -46z m-452 26
c0 -8 -6 -14 -14 -14 -17 0 -17 14 0 20 6 3 12 6 13 6 0 1 1 -5 1 -12z m1569
-35 c22 -18 54 -80 54 -105 0 -8 7 -20 15 -27 8 -7 15 -21 15 -31 0 -11 11
-29 25 -41 32 -28 32 -35 -5 -43 -16 -4 -30 -11 -30 -16 0 -5 -6 -9 -13 -9 -7
0 -29 -11 -49 -25 -20 -14 -46 -25 -57 -25 -11 0 -26 -7 -35 -15 -8 -8 -23
-15 -33 -15 -10 0 -27 -7 -37 -15 -19 -14 -19 -15 2 -34 12 -10 22 -23 22 -28
0 -6 10 -21 23 -35 49 -54 50 -56 34 -73 -9 -8 -20 -15 -26 -15 -6 0 -11 -4
-11 -10 0 -5 9 -10 20 -10 11 0 20 5 20 10 0 12 27 13 34 2 3 -5 -18 -15 -45
-24 -40 -12 -49 -12 -45 -1 3 7 4 13 2 13 -3 0 -13 3 -23 6 -15 5 -15 4 -3 -5
12 -8 12 -11 1 -11 -7 0 -11 -6 -8 -14 9 -22 -5 -27 -20 -8 -8 9 -12 12 -9 5
4 -6 2 -14 -4 -18 -5 -3 -10 -1 -10 5 0 7 -8 9 -19 5 -17 -5 -17 -2 -6 62 7
38 20 89 29 115 13 37 14 51 5 66 -9 15 -9 25 3 48 78 148 108 213 108 234 0
14 5 42 11 63 11 41 31 47 65 19z m644 -72 c0 -11 5 -20 10 -20 13 0 13 -12
-1 -47 -6 -15 -10 -56 -9 -91 1 -37 -4 -69 -11 -78 -6 -8 -7 -14 -2 -14 12 0
10 -43 -3 -47 -13 -4 -15 209 -2 224 7 9 7 13 -1 13 -6 0 -11 7 -11 16 0 9 5
12 13 8 8 -5 8 -2 -2 9 -10 13 -10 17 -1 17 10 0 10 3 0 15 -10 12 -10 15 4
15 9 0 16 -8 16 -20z m-1690 -20 c0 -5 -7 -10 -15 -10 -8 0 -15 5 -15 10 0 6
7 10 15 10 8 0 15 -4 15 -10z m45 -90 c3 -5 1 -10 -4 -10 -6 0 -11 5 -11 10 0
6 2 10 4 10 3 0 8 -4 11 -10z m-2011 -45 c41 -17 40 -34 -2 -36 -26 -1 -26 -1
-4 -7 20 -6 21 -9 9 -26 -12 -17 -15 -17 -29 -2 -9 9 -22 16 -29 16 -7 0 -4 6
7 15 18 14 18 14 -8 15 -14 0 -35 3 -45 7 -16 6 -15 8 7 14 23 6 23 7 -7 8
-18 1 -33 -3 -33 -8 0 -12 -112 -3 -124 10 -18 16 217 11 258 -6z m921 5 c-4
-6 7 -8 27 -4 26 5 30 3 18 -6 -12 -10 -11 -11 8 -7 25 6 62 -18 62 -40 0 -7
5 -13 10 -13 6 0 20 -9 32 -20 20 -19 26 -46 27 -132 1 -21 6 -38 11 -38 6 0
10 18 10 40 0 22 5 40 10 40 6 0 10 -13 10 -30 0 -19 5 -29 13 -27 6 1 11 -4
10 -10 -2 -7 8 -15 22 -19 15 -4 25 -13 25 -25 0 -10 9 -23 20 -29 11 -6 20
-18 20 -26 0 -8 5 -12 10 -9 6 3 10 0 10 -8 0 -26 40 -67 63 -64 16 1 21 -3
19 -15 -2 -10 2 -18 8 -18 5 0 10 6 10 14 0 8 5 18 10 21 8 5 10 -13 7 -52 -3
-51 -5 -58 -23 -55 -10 2 -20 8 -22 13 -2 5 -12 9 -22 9 -10 0 -21 4 -24 9 -8
12 47 9 57 -4 4 -6 10 -5 16 5 14 21 5 29 -34 26 -24 -2 -35 1 -35 10 0 21
-16 16 -28 -8 -9 -21 -11 -18 -11 20 -1 23 -5 42 -11 42 -5 0 -7 -6 -4 -14 3
-8 1 -23 -5 -33 -8 -15 -10 -10 -11 25 0 39 -2 43 -20 37 -18 -6 -20 -3 -14
19 5 22 3 26 -17 27 -20 0 -21 2 -6 8 17 6 17 8 -2 25 -12 11 -21 30 -21 43 0
12 -5 23 -11 23 -5 0 -8 -4 -5 -9 9 -14 -21 -21 -32 -8 -5 7 -14 26 -20 42
l-10 30 -1 -35 c-1 -25 -4 -31 -10 -21 -5 8 -7 20 -4 27 2 6 -1 15 -6 19 -6 3
-9 11 -6 16 4 5 -3 9 -14 9 -12 0 -20 6 -18 13 1 6 -5 12 -13 12 -17 0 -29 11
-46 40 -7 11 -19 19 -28 17 -11 -2 -14 2 -10 13 4 8 1 15 -6 15 -20 0 -71 48
-57 53 6 3 2 6 -11 6 -16 1 -21 -3 -16 -11 6 -10 4 -10 -7 0 -7 6 -29 13 -48
14 -20 1 2 5 49 8 47 3 89 7 93 8 5 1 5 -2 2 -8z m240 0 c3 -5 32 -10 63 -11
40 0 51 -3 37 -9 -14 -5 -6 -8 28 -7 26 0 47 4 47 8 0 5 -7 6 -15 3 -8 -4 -15
-1 -15 6 0 6 8 10 18 8 9 -1 22 1 28 4 7 5 9 -3 6 -23 -3 -20 -10 -29 -23 -29
-11 0 -19 -4 -19 -10 0 -5 9 -10 20 -10 11 0 20 -6 20 -13 0 -8 -13 -13 -36
-13 -21 0 -32 2 -25 4 6 2 11 8 11 13 0 6 -8 5 -20 -1 -14 -7 -26 -8 -39 0
-11 5 -26 7 -34 4 -8 -3 -18 -1 -22 5 -10 18 -45 13 -45 -6 0 -14 -2 -15 -12
-4 -10 11 -10 14 0 18 18 7 14 23 -6 23 -30 0 -33 11 -9 31 25 21 33 23 42 9z
m-1023 -6 c4 -3 37 -7 75 -8 97 -4 164 -17 170 -32 3 -8 13 -14 22 -14 20 0
47 -43 37 -59 -10 -16 -46 -13 -52 4 -8 21 -24 19 -25 -2 0 -12 -2 -13 -6 -5
-3 9 -12 5 -29 -13 -15 -16 -24 -21 -24 -12 0 9 -12 14 -36 14 -20 0 -39 4
-42 10 -4 6 -22 18 -39 27 -40 20 -45 51 -8 43 16 -3 24 0 22 7 -2 6 -26 11
-54 11 -28 0 -49 2 -47 4 2 3 -8 10 -23 17 l-28 12 41 1 c22 1 43 -2 46 -5z
m598 -29 c6 -19 17 -35 25 -35 7 0 18 -7 25 -15 12 -14 7 -15 -38 -11 -44 4
-54 2 -62 -15 -14 -24 -24 -24 -59 2 -17 13 -34 18 -42 14 -8 -5 -10 -4 -5 3
4 7 3 12 -3 12 -5 0 -12 -6 -15 -12 -3 -7 -3 -3 -1 8 4 16 0 23 -16 27 -11 3
-18 10 -15 15 3 6 -2 13 -12 18 -24 10 21 18 125 22 l81 2 12 -35z m749 25 c6
8 14 11 18 6 4 -4 -2 -16 -14 -26 -13 -10 -23 -23 -23 -29 0 -15 -6 -14 -35 5
-34 22 -32 37 5 29 26 -6 29 -4 24 12 -5 15 -4 16 5 3 10 -13 12 -13 20 0z
m51 0 c0 -5 -5 -10 -11 -10 -5 0 -7 5 -4 10 3 6 8 10 11 10 2 0 4 -4 4 -10z
m20 -21 c0 -6 -9 -13 -19 -16 -11 -3 -21 -12 -23 -20 -3 -12 -6 -12 -22 0 -17
13 -16 14 15 30 40 20 49 21 49 6z m-1475 -15 c14 -9 25 -13 25 -10 0 4 14 -6
30 -21 21 -20 29 -34 24 -46 -7 -19 -24 -23 -24 -6 0 6 -9 8 -20 4 -26 -8 -80
48 -73 76 6 23 7 23 38 3z m780 -4 c3 -6 -1 -7 -9 -4 -18 7 -21 14 -7 14 6 0
13 -4 16 -10z m205 0 c0 -5 -5 -10 -11 -10 -5 0 -7 5 -4 10 3 6 8 10 11 10 2
0 4 -4 4 -10z m540 -9 c0 -5 -6 -14 -14 -20 -16 -13 -32 2 -21 19 8 12 35 13
35 1z m-707 -25 c4 -10 1 -13 -9 -9 -15 6 -19 23 -5 23 5 0 11 -7 14 -14z
m565 -21 c-2 -1 -20 -5 -40 -8 -26 -4 -38 -2 -38 6 0 9 13 11 41 9 22 -2 39
-5 37 -7z m-608 1 c0 -3 -4 -8 -10 -11 -5 -3 -10 -1 -10 4 0 6 5 11 10 11 6 0
10 -2 10 -4z m-110 -66 c0 -5 9 -10 20 -10 11 0 20 -5 20 -11 0 -6 -8 -7 -22
-3 -13 5 -33 8 -46 7 -22 -1 -22 0 -5 13 22 16 33 18 33 4z m963 -15 c-3 -9
-8 -14 -10 -11 -3 3 -2 9 2 15 9 16 15 13 8 -4z m-466 -47 c-2 -13 -4 -5 -4
17 -1 22 1 32 4 23 2 -10 2 -28 0 -40z m220 15 c-3 -10 -5 -4 -5 12 0 17 2 24
5 18 2 -7 2 -21 0 -30z m43 22 c0 -8 -2 -15 -4 -15 -2 0 -6 7 -10 15 -3 8 -1
15 4 15 6 0 10 -7 10 -15z m27 -47 c-2 -13 -4 -3 -4 22 0 25 2 35 4 23 2 -13
2 -33 0 -45z m73 58 c0 -3 -4 -8 -10 -11 -5 -3 -10 -1 -10 4 0 6 5 11 10 11 6
0 10 -2 10 -4z m40 0 c0 -3 -4 -8 -10 -11 -5 -3 -10 -1 -10 4 0 6 5 11 10 11
6 0 10 -2 10 -4z m-83 -63 c-3 -10 -5 -2 -5 17 0 19 2 27 5 18 2 -10 2 -26 0
-35z m-750 15 c-3 -8 -6 -5 -6 6 -1 11 2 17 5 13 3 -3 4 -12 1 -19z m43 12 c0
-5 -4 -10 -10 -10 -5 0 -10 5 -10 10 0 6 5 10 10 10 6 0 10 -4 10 -10z m44 -6
c9 -24 7 -31 -4 -14 -9 13 -11 13 -20 0 -11 -17 -13 -10 -4 14 3 9 10 16 14
16 4 0 11 -7 14 -16z m773 -26 c-3 -7 -5 -2 -5 12 0 14 2 19 5 13 2 -7 2 -19
0 -25z m-281 -26 c-12 -11 -18 7 -10 30 l8 23 4 -23 c2 -13 1 -26 -2 -30z
m254 28 c0 -5 -5 -10 -11 -10 -5 0 -7 5 -4 10 3 6 8 10 11 10 2 0 4 -4 4 -10z
m60 -5 c0 -8 -4 -15 -10 -15 -5 0 -7 7 -4 15 4 8 8 15 10 15 2 0 4 -7 4 -15z
m-920 -5 c0 -5 -5 -10 -11 -10 -5 0 -7 5 -4 10 3 6 8 10 11 10 2 0 4 -4 4 -10z
m2860 0 c0 -5 -4 -10 -10 -10 -5 0 -10 5 -10 10 0 6 5 10 10 10 6 0 10 -4 10
-10z m-2790 -10 c0 -5 -4 -10 -10 -10 -5 0 -10 5 -10 10 0 6 5 10 10 10 6 0
10 -4 10 -10z m417 4 c-3 -3 -12 -4 -19 -1 -8 3 -5 6 6 6 11 1 17 -2 13 -5z
m38 -13 c-3 -6 -11 -11 -17 -11 -6 0 -6 6 2 15 14 17 26 13 15 -4z m287 -11
c3 -16 1 -35 -4 -42 -4 -8 -8 4 -8 30 0 49 6 55 12 12z m-602 -4 c0 -3 -4 -8
-10 -11 -5 -3 -10 -1 -10 4 0 6 5 11 10 11 6 0 10 -2 10 -4z m388 -17 c7 -12
11 -24 8 -27 -6 -6 -35 27 -36 41 0 14 15 7 28 -14z m52 6 c0 -8 -4 -15 -10
-15 -5 0 -10 7 -10 15 0 8 5 15 10 15 6 0 10 -7 10 -15z m-148 -10 c0 -5 -5
-11 -11 -13 -6 -2 -11 4 -11 13 0 9 5 15 11 13 6 -2 11 -8 11 -13z m498 -14
c-6 -12 -15 -21 -21 -21 -6 0 -3 7 5 16 9 8 16 20 16 26 0 6 3 9 6 6 3 -4 1
-16 -6 -27z m37 -3 c-3 -7 -5 -2 -5 12 0 14 2 19 5 13 2 -7 2 -19 0 -25z
m-667 18 c0 -3 -4 -8 -10 -11 -5 -3 -10 -1 -10 4 0 6 5 11 10 11 6 0 10 -2 10
-4z m310 -11 c0 -8 -4 -15 -10 -15 -5 0 -7 7 -4 15 4 8 8 15 10 15 2 0 4 -7 4
-15z m174 -18 c-7 -19 -20 -22 -29 -7 -3 6 -1 10 4 10 6 0 11 8 11 17 0 12 3
14 10 7 6 -6 8 -18 4 -27z m-333 0 c-10 -9 -11 -8 -5 6 3 10 9 15 12 12 3 -3
0 -11 -7 -18z m49 13 c0 -5 -4 -10 -10 -10 -5 0 -10 5 -10 10 0 6 5 10 10 10
6 0 10 -4 10 -10z m353 -10 c-3 -11 -7 -20 -9 -20 -2 0 -4 9 -4 20 0 11 4 20
9 20 5 0 7 -9 4 -20z m-1049 -25 c-4 -10 0 -15 11 -15 9 0 13 -5 10 -10 -4 -7
-14 -6 -28 2 -20 10 -21 10 -8 -6 10 -12 25 -16 42 -14 25 4 29 0 37 -31 6
-26 13 -35 25 -33 10 2 17 -4 17 -13 0 -8 4 -15 8 -15 5 0 9 -7 9 -15 0 -12
-12 -15 -54 -13 -37 2 -57 -2 -63 -11 -7 -12 -14 -11 -40 5 -18 10 -32 22 -31
27 0 4 1 18 1 32 0 16 6 25 16 25 14 0 14 3 3 16 -10 13 -10 17 2 26 11 7 11
11 2 15 -18 7 3 27 44 42 1 1 0 -6 -3 -14z m2784 -12 c16 -16 16 -16 -1 -10
-10 4 -23 7 -28 7 -5 0 -9 5 -9 10 0 15 20 12 38 -7z m-1508 -3 c0 -5 -9 -10
-20 -10 -11 0 -20 5 -20 10 0 6 9 10 20 10 11 0 20 -4 20 -10z m1795 0 c-3 -5
-10 -10 -16 -10 -5 0 -9 5 -9 10 0 6 7 10 16 10 8 0 12 -4 9 -10z m-2017 -25
c-3 -3 -9 2 -12 12 -6 14 -5 15 5 6 7 -7 10 -15 7 -18z m140 -3 c2 -7 -6 -12
-17 -12 -21 0 -27 11 -14 24 9 9 26 2 31 -12z m1632 -1 c0 -3 14 -12 30 -19
29 -13 41 -32 20 -32 -5 0 -10 5 -10 10 0 6 -6 10 -12 10 -7 0 -24 9 -37 19
-17 13 -19 18 -7 18 9 0 16 -3 16 -6z m-2310 -5 c0 -3 -4 -8 -10 -11 -5 -3
-10 -1 -10 4 0 6 5 11 10 11 6 0 10 -2 10 -4z m-33 -38 c-3 -7 -5 -2 -5 12 0
14 2 19 5 13 2 -7 2 -19 0 -25z m73 18 c0 -8 -4 -18 -10 -21 -5 -3 -10 3 -10
14 0 12 5 21 10 21 6 0 10 -6 10 -14z m250 -18 c0 -23 -3 -29 -11 -21 -6 6 -8
20 -4 32 9 30 15 26 15 -11z m1995 12 c27 -30 12 -34 -15 -5 -13 14 -19 25
-13 25 5 0 18 -9 28 -20z m329 5 c-4 -8 -8 -15 -10 -15 -2 0 -4 7 -4 15 0 8 4
15 10 15 5 0 7 -7 4 -15z m-3047 -27 c-3 -7 -5 -2 -5 12 0 14 2 19 5 13 2 -7
2 -19 0 -25z m970 -10 c-3 -7 -5 -2 -5 12 0 14 2 19 5 13 2 -7 2 -19 0 -25z
m987 9 c15 -10 24 -24 22 -35 -10 -52 -42 -88 -63 -70 -7 5 -21 7 -32 3 -16
-5 -20 -2 -18 17 0 13 6 27 12 31 6 5 2 7 -9 5 -13 -2 -20 4 -21 20 -2 23 14
29 31 12 8 -8 15 -6 24 5 8 10 9 15 1 15 -6 0 -11 4 -11 8 0 14 35 7 64 -11z
m701 3 c16 -17 16 -20 3 -15 -9 4 -19 13 -22 21 -7 19 -2 18 19 -6z m-1867 -7
c2 -8 -6 -13 -22 -13 -25 0 -33 10 -19 24 10 10 36 3 41 -11z m-98 -7 c0 -8
-4 -18 -10 -21 -5 -3 -10 3 -10 14 0 12 5 21 10 21 6 0 10 -6 10 -14z m1540
-6 c0 -5 9 -10 21 -10 11 0 17 -4 14 -10 -3 -5 0 -10 7 -11 7 0 -1 -5 -18 -10
-27 -8 -32 -14 -37 -51 -5 -41 1 -66 10 -40 6 16 23 15 23 -2 0 -10 9 -12 40
-6 53 10 144 -11 148 -33 2 -12 -3 -17 -18 -17 -11 0 -33 -11 -48 -25 -15 -14
-32 -25 -39 -25 -7 0 -13 -5 -13 -12 0 -6 -3 -9 -6 -5 -4 3 -21 0 -39 -8 -19
-7 -36 -11 -39 -8 -3 3 -11 1 -18 -4 -23 -18 -111 -33 -148 -25 -33 8 -35 10
-31 43 2 18 4 69 5 111 l1 78 37 15 c20 8 40 21 45 28 15 25 103 48 103 27z
m370 0 c0 -5 -4 -10 -10 -10 -5 0 -10 5 -10 10 0 6 5 10 10 10 6 0 10 -4 10
-10z m-2525 -28 c-3 -3 -11 0 -18 7 -9 10 -8 11 6 5 10 -3 15 -9 12 -12z
m2560 8 c3 -5 11 -10 16 -10 6 0 7 5 4 10 -3 6 -1 10 4 10 6 0 11 -4 11 -10 0
-5 9 -10 20 -10 11 0 20 -5 20 -11 0 -5 -4 -8 -9 -5 -5 4 -8 -1 -7 -10 1 -8 8
-19 15 -24 8 -4 12 -13 9 -20 -3 -9 -8 -8 -20 4 -9 9 -19 16 -22 16 -7 0 -66
58 -66 65 0 9 19 5 25 -5z m-2098 -22 c-3 -8 -6 -5 -6 6 -1 11 2 17 5 13 3 -3
4 -12 1 -19z m293 12 c0 -5 -2 -10 -4 -10 -3 0 -8 5 -11 10 -3 6 -1 10 4 10 6
0 11 -4 11 -10z m-263 -42 c-3 -8 -6 -5 -6 6 -1 11 2 17 5 13 3 -3 4 -12 1
-19z m2255 -10 c-9 -9 -12 -7 -12 12 0 19 3 21 12 12 9 -9 9 -15 0 -24z
m-2775 16 c-3 -3 -12 -4 -19 -1 -8 3 -5 6 6 6 11 1 17 -2 13 -5z m602 -64 c0
-21 -2 -20 -13 10 -7 19 -10 39 -7 44 6 13 20 -23 20 -54z m-599 40 c0 -5 -4
-10 -10 -10 -5 0 -10 5 -10 10 0 6 5 10 10 10 6 0 10 -4 10 -10z m560 0 c0 -5
-4 -10 -10 -10 -5 0 -10 5 -10 10 0 6 5 10 10 10 6 0 10 -4 10 -10z m180 0 c0
-5 -7 -10 -16 -10 -8 0 -12 5 -9 10 3 6 10 10 16 10 5 0 9 -4 9 -10z m40 -12
c0 -18 -2 -20 -9 -8 -6 8 -7 18 -5 22 9 14 14 9 14 -14z m-816 -9 c-6 -11 -24
-2 -24 11 0 5 7 7 15 4 8 -4 12 -10 9 -15z m1881 11 c-3 -5 -12 -10 -18 -10
-7 0 -6 4 3 10 19 12 23 12 15 0z m-1845 -30 c0 -5 -2 -10 -4 -10 -3 0 -8 5
-11 10 -3 6 -1 10 4 10 6 0 11 -4 11 -10z m627 -12 c-3 -8 -6 -5 -6 6 -1 11 2
17 5 13 3 -3 4 -12 1 -19z m165 -28 c4 0 8 5 8 10 0 6 5 10 10 10 12 0 13 -80
1 -98 -6 -11 -10 -10 -15 5 -7 17 -8 17 -20 0 -11 -14 -19 -16 -40 -7 -28 10
-36 40 -11 40 24 0 17 28 -7 32 -21 3 -21 4 5 9 26 6 27 5 28 -35 1 -38 2 -39
8 -11 4 20 9 26 14 17 5 -7 13 -10 18 -7 16 11 10 25 -11 25 -15 0 -20 6 -19
28 0 27 1 27 11 5 6 -13 15 -23 20 -23z m-122 0 c0 -5 -4 -10 -10 -10 -5 0
-10 5 -10 10 0 6 5 10 10 10 6 0 10 -4 10 -10z m-73 -52 c-3 -8 -6 -5 -6 6 -1
11 2 17 5 13 3 -3 4 -12 1 -19z m240 -10 c-3 -8 -6 -5 -6 6 -1 11 2 17 5 13 3
-3 4 -12 1 -19z m-320 -20 c-3 -7 -5 -2 -5 12 0 14 2 19 5 13 2 -7 2 -19 0
-25z m-37 -28 c0 -5 -4 -10 -10 -10 -5 0 -10 5 -10 10 0 6 5 10 10 10 6 0 10
-4 10 -10z m-233 -6 c-3 -3 -12 -4 -19 -1 -8 3 -5 6 6 6 11 1 17 -2 13 -5z
m613 -34 c12 -8 11 -10 -7 -10 -13 0 -23 5 -23 10 0 13 11 13 30 0z m-262 -41
c-3 -8 -7 -3 -11 10 -4 17 -3 21 5 13 5 -5 8 -16 6 -23z m2067 11 c3 -5 1 -10
-4 -10 -6 0 -11 5 -11 10 0 6 2 10 4 10 3 0 8 -4 11 -10z m-2397 -31 c6 -14
24 -10 36 7 14 19 46 9 46 -15 0 -24 -16 -45 -24 -32 -10 15 -25 14 -22 -1 3
-25 17 -37 34 -31 13 4 12 1 -5 -16 -12 -11 -30 -21 -40 -22 -11 0 -13 -3 -5
-6 17 -7 15 -40 -4 -47 -24 -9 -28 -7 -14 9 9 11 9 15 1 15 -6 0 -14 -6 -17
-14 -11 -30 -74 -5 -74 29 0 6 5 3 10 -5 5 -8 10 -10 10 -4 0 12 -21 34 -33
34 -4 0 -5 -4 -2 -10 3 -5 2 -10 -3 -10 -5 0 -10 22 -11 49 -1 53 11 66 54 55
20 -5 23 -3 18 16 -5 20 -3 21 18 15 13 -4 26 -12 27 -16z m359 -11 c-3 -8 -6
-5 -6 6 -1 11 2 17 5 13 3 -3 4 -12 1 -19z m-30 -20 c-3 -7 -5 -2 -5 12 0 14
2 19 5 13 2 -7 2 -19 0 -25z m2044 -1 c-10 -9 -11 -8 -5 6 3 10 9 15 12 12 3
-3 0 -11 -7 -18z m-1971 -29 c0 -38 -5 -34 -13 10 -4 21 -3 31 3 27 6 -3 10
-20 10 -37z m-535 12 c3 -5 1 -10 -4 -10 -6 0 -11 5 -11 10 0 6 2 10 4 10 3 0
8 -4 11 -10z m606 -17 c0 -16 2 -36 4 -45 2 -10 -3 -18 -11 -18 -10 0 -14 13
-14 45 0 48 19 64 21 18z m-50 -56 c-10 -9 -11 -8 -5 6 3 10 9 15 12 12 3 -3
0 -11 -7 -18z m-1418 -48 c26 -7 47 -16 47 -19 0 -3 16 -14 35 -24 19 -11 35
-22 35 -25 0 -3 12 -19 26 -34 19 -21 24 -35 20 -52 -5 -20 -2 -26 18 -31 15
-3 23 -11 19 -19 -2 -8 5 -20 16 -27 12 -7 21 -20 21 -30 0 -9 12 -26 28 -38
15 -12 23 -19 17 -17 -5 2 -34 1 -64 -3 -47 -6 -54 -5 -59 12 -5 20 -18 24
-24 7 -5 -16 -55 6 -68 31 -6 12 -13 31 -16 43 -2 12 -9 24 -15 26 -8 2 -8 6
1 11 17 10 -8 68 -32 76 -9 3 -20 14 -23 25 -7 21 -15 24 -33 9 -9 -7 -9 -7
-2 2 16 19 12 28 -15 28 -18 0 -25 -5 -25 -19 0 -29 -18 -35 -22 -9 -2 19 -10
23 -38 24 -19 1 -41 2 -47 3 -23 2 -14 16 20 29 17 8 41 17 52 22 50 21 47 21
128 -1z m871 -30 c-4 -8 1 -9 17 -5 13 3 18 3 12 0 -7 -3 -13 -12 -13 -19 0
-7 6 -15 13 -18 6 -2 9 -8 5 -12 -5 -5 -16 2 -27 13 -10 12 -23 22 -30 22 -6
0 -11 7 -11 15 0 8 9 15 21 15 12 0 17 -4 13 -11z m446 -9 c0 -5 -7 -7 -15 -4
-8 4 -15 8 -15 10 0 2 7 4 15 4 8 0 15 -4 15 -10z m-380 -75 c0 -1 -7 -8 -15
-15 -13 -10 -15 -9 -15 8 0 15 5 20 15 16 8 -4 15 -7 15 -9z m25 -25 c3 -5 1
-10 -4 -10 -6 0 -11 5 -11 10 0 6 2 10 4 10 3 0 8 -4 11 -10z m46 -54 c6 -19
4 -33 -6 -42 -18 -18 -26 -18 -19 1 4 8 2 15 -4 15 -5 0 -12 7 -16 15 -4 12
-2 13 13 6 13 -8 18 -6 18 5 0 7 -4 14 -9 14 -4 0 -8 5 -8 11 0 21 24 2 31
-25z m29 -6 c0 -5 -2 -10 -4 -10 -3 0 -8 5 -11 10 -3 6 -1 10 4 10 6 0 11 -4
11 -10z m1610 -30 c0 -5 -4 -10 -10 -10 -5 0 -10 5 -10 10 0 6 5 10 10 10 6 0
10 -4 10 -10z m-40 -40 c0 -5 -5 -10 -11 -10 -5 0 -7 5 -4 10 3 6 8 10 11 10
2 0 4 -4 4 -10z m-2303 -72 c-3 -8 -6 -5 -6 6 -1 11 2 17 5 13 3 -3 4 -12 1
-19z m-32 -8 c4 -11 17 -28 31 -36 13 -9 24 -23 24 -31 0 -9 -11 -2 -26 16
-14 17 -32 31 -40 31 -8 0 -14 9 -14 20 0 26 17 26 25 0z m762 -112 c-3 -8 -6
-5 -6 6 -1 11 2 17 5 13 3 -3 4 -12 1 -19z m2154 -56 c-7 -2 -18 1 -23 6 -8 8
-4 9 13 5 13 -4 18 -8 10 -11z m-41 -2 c0 -5 -5 -10 -11 -10 -5 0 -7 5 -4 10
3 6 8 10 11 10 2 0 4 -4 4 -10z m-31 -14 c-2 -2 -17 -6 -34 -10 -22 -5 -26 -4
-15 4 14 9 59 15 49 6z m-2734 -206 c-3 -5 -11 -10 -16 -10 -6 0 -7 5 -4 10 3
6 11 10 16 10 6 0 7 -4 4 -10z m53 -95 c-3 -3 -9 2 -12 12 -6 14 -5 15 5 6 7
-7 10 -15 7 -18z m205 0 c-1 -6 30 -10 75 -10 56 0 80 -4 89 -15 15 -18 17
-54 3 -45 -5 3 -11 0 -12 -7 0 -7 -3 -26 -5 -43 -2 -16 -4 -36 -5 -42 -1 -7
-5 -13 -9 -13 -16 0 -79 68 -79 86 0 15 -2 16 -9 5 -7 -11 -13 -8 -31 12 -13
15 -27 24 -32 21 -5 -3 -8 -2 -7 3 3 20 -2 27 -12 13 -8 -12 -9 -10 -4 9 4 14
3 21 -2 18 -5 -4 -10 1 -10 9 0 10 8 14 26 12 14 -2 25 -7 24 -13z m-176 -80
c0 -8 -4 -15 -9 -15 -10 0 -11 14 -1 23 9 10 10 9 10 -8z m33 5 c0 -5 -5 -10
-11 -10 -5 0 -7 5 -4 10 3 6 8 10 11 10 2 0 4 -4 4 -10z"/>
<path d="M980 4391 c0 -5 5 -13 10 -16 6 -3 10 -2 10 4 0 5 -4 13 -10 16 -5 3
-10 2 -10 -4z"/>
<path d="M1805 3610 c-13 -6 -15 -9 -5 -9 8 0 22 4 30 9 18 12 2 12 -25 0z"/>
<path d="M1192 3590 c-13 -21 -2 -33 22 -24 19 7 20 18 3 32 -9 8 -16 6 -25
-8z"/>
<path d="M3175 3120 c3 -5 8 -10 11 -10 2 0 4 5 4 10 0 6 -5 10 -11 10 -5 0
-7 -4 -4 -10z"/>
<path d="M3940 3140 c0 -5 5 -10 11 -10 5 0 7 5 4 10 -3 6 -8 10 -11 10 -2 0
-4 -4 -4 -10z"/>
<path d="M1550 2720 c-9 -6 -10 -10 -3 -10 6 0 15 5 18 10 8 12 4 12 -15 0z"/>
<path d="M1362 1677 c0 -26 3 -36 10 -29 7 7 7 20 0 39 -9 28 -9 27 -10 -10z"/>
<path d="M4316 4985 c-3 -8 -1 -15 4 -15 13 0 22 18 11 24 -5 3 -11 -1 -15 -9z"/>
<path d="M4200 4960 c6 -11 13 -20 16 -20 2 0 0 9 -6 20 -6 11 -13 20 -16 20
-2 0 0 -9 6 -20z"/>
<path d="M4236 4952 c-3 -4 4 -9 15 -9 23 -2 25 3 4 10 -8 4 -16 3 -19 -1z"/>
<path d="M4348 4703 c7 -3 16 -2 19 1 4 3 -2 6 -13 5 -11 0 -14 -3 -6 -6z"/>
<path d="M4406 4695 c-3 -8 -10 -15 -16 -15 -6 0 -8 5 -5 10 9 14 -1 12 -17
-4 -20 -19 -78 -31 -78 -16 0 7 6 10 13 7 6 -2 21 -1 32 4 19 7 19 8 -2 8 -12
1 -28 4 -37 7 -11 4 -16 0 -16 -12 0 -16 -2 -17 -10 -4 -8 12 -10 11 -10 -7 0
-12 -5 -23 -12 -25 -7 -3 7 -9 30 -15 23 -6 39 -7 36 -2 -3 5 -1 9 5 9 6 0 15
-9 21 -19 8 -17 7 -19 -15 -16 -16 1 -25 -3 -25 -12 0 -8 3 -12 8 -10 10 7 32
-19 24 -29 -4 -4 -1 -3 7 1 11 6 13 4 8 -9 -4 -11 -3 -15 4 -11 6 4 8 13 5 21
-3 8 1 14 9 14 7 0 16 -8 18 -17 4 -15 5 -15 6 2 0 11 8 30 16 43 15 20 15 21
-1 15 -12 -4 -15 -3 -10 6 6 9 0 10 -21 6 -28 -5 -28 -5 -3 6 14 6 31 12 38
13 8 1 17 8 22 15 5 8 13 10 21 5 12 -6 12 -5 1 8 -8 9 -20 14 -28 11 -10 -4
-12 0 -8 11 3 9 4 16 1 16 -3 0 -7 -7 -11 -15z m4 -35 c-20 -13 -33 -13 -25 0
3 6 14 10 23 10 15 0 15 -2 2 -10z m-43 -76 c-3 -3 -12 -4 -19 -1 -8 3 -5 6 6
6 11 1 17 -2 13 -5z"/>
<path d="M4620 4640 c-9 -6 -10 -10 -3 -10 6 0 15 5 18 10 8 12 4 12 -15 0z"/>
<path d="M4652 4618 c5 -15 28 -23 28 -10 0 5 -7 13 -16 16 -10 4 -14 1 -12
-6z"/>
<path d="M4415 4589 c-4 -6 -4 -13 -1 -16 3 -4 6 -1 6 6 0 8 6 11 16 7 8 -3
12 -2 9 4 -8 13 -22 13 -30 -1z"/>
<path d="M4448 4558 c5 -5 16 -8 23 -6 8 3 3 7 -10 11 -17 4 -21 3 -13 -5z"/>
<path d="M2781 4504 c0 -11 3 -14 6 -6 3 7 2 16 -1 19 -3 4 -6 -2 -5 -13z"/>
<path d="M4518 4499 c-10 -5 -18 -14 -18 -18 0 -14 25 -8 44 11 22 20 4 25
-26 7z"/>
<path d="M4320 4480 c-9 -6 -10 -10 -3 -10 6 0 15 5 18 10 8 12 4 12 -15 0z"/>
<path d="M3030 4458 c0 -9 5 -20 11 -23 6 -4 8 -14 5 -22 -3 -8 -1 -11 4 -8
14 9 12 28 -5 51 -13 17 -14 17 -15 2z"/>
<path d="M4537 4432 c-21 -22 -22 -46 -3 -39 7 3 19 0 25 -6 8 -8 11 -8 11 1
0 7 -4 12 -10 12 -5 0 -10 5 -10 11 0 6 7 8 16 5 15 -6 15 -4 3 11 -7 10 -14
19 -15 21 0 1 -8 -6 -17 -16z"/>
<path d="M4420 4412 c0 -12 3 -12 15 -2 8 7 15 13 15 15 0 1 -7 2 -15 2 -8 0
-15 -7 -15 -15z"/>
<path d="M4480 4411 c0 -6 4 -13 10 -16 6 -3 7 1 4 9 -7 18 -14 21 -14 7z"/>
<path d="M4650 4410 c0 -5 5 -10 11 -10 5 0 7 5 4 10 -3 6 -8 10 -11 10 -2 0
-4 -4 -4 -10z"/>
<path d="M4458 4381 c9 -10 19 -18 22 -18 3 0 13 -3 23 -8 10 -4 23 -3 28 2 7
7 -1 13 -25 17 -20 4 -36 11 -36 16 0 6 -7 10 -15 10 -12 0 -12 -3 3 -19z"/>
<path d="M4594 4392 c4 -7 1 -15 -8 -18 -26 -10 -18 -20 14 -19 36 0 37 6 8
31 -12 10 -18 13 -14 6z"/>
<path d="M2766 4374 c-8 -22 -8 -62 2 -67 4 -3 8 15 8 39 2 47 0 53 -10 28z"/>
<path d="M4468 4323 c7 -3 16 -2 19 1 4 3 -2 6 -13 5 -11 0 -14 -3 -6 -6z"/>
<path d="M4390 4295 c-7 -8 -9 -15 -6 -15 4 0 14 7 22 15 9 8 11 15 6 15 -5 0
-15 -7 -22 -15z"/>
<path d="M3110 4281 c0 -25 6 -27 13 -6 4 8 2 17 -3 20 -6 4 -10 -3 -10 -14z"/>
<path d="M4435 4230 c-3 -5 -1 -10 4 -10 6 0 11 5 11 10 0 6 -2 10 -4 10 -3 0
-8 -4 -11 -10z"/>
<path d="M4500 4207 c0 -8 7 -14 15 -14 8 0 15 6 15 14 0 7 -7 13 -15 13 -8 0
-15 -6 -15 -13z"/>
<path d="M4276 4062 c-3 -5 1 -9 9 -9 8 0 15 4 15 9 0 4 -4 8 -9 8 -6 0 -12
-4 -15 -8z"/>
<path d="M4242 3645 c0 -19 4 -32 9 -29 5 3 9 16 9 29 0 13 -4 26 -9 29 -5 3
-9 -10 -9 -29z"/>
<path d="M2247 3649 c7 -7 15 -10 18 -7 3 3 -2 9 -12 12 -14 6 -15 5 -6 -5z"/>
<path d="M2290 3600 c0 -5 5 -10 10 -10 6 0 10 5 10 10 0 6 -4 10 -10 10 -5 0
-10 -4 -10 -10z"/>
<path d="M2320 3580 c0 -5 5 -10 11 -10 5 0 7 5 4 10 -3 6 -8 10 -11 10 -2 0
-4 -4 -4 -10z"/>
<path d="M4701 3537 c-6 -8 -8 -17 -4 -20 3 -4 0 -7 -8 -7 -19 -1 -192 -253
-195 -285 -3 -28 11 -43 20 -20 4 13 10 12 38 -4 l33 -20 59 28 c38 18 54 31
45 35 -8 3 1 3 20 0 20 -4 31 -2 28 3 -4 6 7 10 24 11 45 1 89 12 89 22 0 5 7
7 17 3 14 -6 14 -2 -3 28 -10 18 -25 40 -33 49 -13 13 -11 15 21 18 29 3 35 6
31 22 -6 21 -29 33 -45 23 -7 -3 -8 -1 -4 5 4 7 2 12 -3 12 -6 0 -11 7 -11 15
0 12 -5 13 -27 4 -27 -10 -30 -9 -54 34 -9 16 -13 16 -27 5 -15 -11 -15 -11
-6 2 9 12 16 50 9 50 -2 0 -8 -6 -14 -13z m109 -91 c0 -2 -7 -7 -16 -10 -8 -3
-12 -2 -9 4 6 10 25 14 25 6z"/>
<path d="M2396 3505 c4 -8 8 -15 10 -15 2 0 4 7 4 15 0 8 -4 15 -10 15 -5 0
-7 -7 -4 -15z"/>
<path d="M2430 3489 c0 -16 4 -28 9 -25 8 5 3 56 -5 56 -2 0 -4 -14 -4 -31z"/>
<path d="M2559 3507 c-17 -13 -32 -107 -17 -107 5 0 7 -9 3 -20 -3 -11 -3 -25
2 -32 5 -9 10 -3 14 17 l7 30 1 -32 c1 -45 21 -52 22 -9 1 34 3 45 9 64 1 4 2
15 1 25 -3 24 15 21 33 -5 9 -12 16 -19 16 -14 0 4 -9 19 -20 33 -11 14 -20
33 -20 41 0 13 -3 13 -18 -1 -21 -19 -38 -11 -21 10 14 16 9 16 -12 0z m3 -59
c-10 -22 -11 -21 -11 12 -1 26 2 31 11 22 8 -8 8 -17 0 -34z"/>
<path d="M2465 3500 c3 -5 8 -10 11 -10 2 0 4 5 4 10 0 6 -5 10 -11 10 -5 0
-7 -4 -4 -10z"/>
<path d="M2496 3463 c3 -21 7 -46 9 -55 2 -10 -1 -18 -6 -18 -13 0 -11 -37 2
-45 6 -4 13 -4 16 -1 7 7 5 113 -3 139 -10 32 -23 17 -18 -20z"/>
<path d="M2465 3455 c0 -14 5 -25 11 -25 7 0 9 10 6 25 -2 14 -7 25 -11 25 -3
0 -6 -11 -6 -25z"/>
<path d="M2435 3440 c3 -5 8 -10 11 -10 2 0 4 5 4 10 0 6 -5 10 -11 10 -5 0
-7 -4 -4 -10z"/>
<path d="M4170 3440 c0 -5 5 -10 11 -10 5 0 7 5 4 10 -3 6 -8 10 -11 10 -2 0
-4 -4 -4 -10z"/>
<path d="M2456 3403 c5 -5 12 -12 16 -18 4 -6 8 -2 8 8 0 9 -7 17 -17 17 -9 0
-12 -3 -7 -7z"/>
<path d="M4245 3390 c-3 -5 -1 -10 4 -10 6 0 11 5 11 10 0 6 -2 10 -4 10 -3 0
-8 -4 -11 -10z"/>
<path d="M4298 3388 c9 -9 15 -9 24 0 9 9 7 12 -12 12 -19 0 -21 -3 -12 -12z"/>
<path d="M4915 3380 c3 -5 10 -10 16 -10 5 0 9 5 9 10 0 6 -7 10 -16 10 -8 0
-12 -4 -9 -10z"/>
<path d="M2456 3362 c-4 -7 0 -19 8 -28 17 -17 19 -11 7 20 -5 14 -10 16 -15
8z"/>
<path d="M4250 3360 c0 -5 5 -10 10 -10 6 0 10 5 10 10 0 6 -4 10 -10 10 -5 0
-10 -4 -10 -10z"/>
<path d="M4320 3329 c0 -5 5 -7 10 -4 6 3 10 8 10 11 0 2 -4 4 -10 4 -5 0 -10
-5 -10 -11z"/>
<path d="M4375 3300 c4 -6 -8 -11 -27 -11 -23 -1 -17 -4 22 -9 63 -10 83 -3
49 16 -29 16 -53 18 -44 4z"/>
<path d="M2814 3265 c-4 -8 -11 -12 -16 -9 -6 4 -14 0 -19 -7 -6 -10 -9 -11
-9 -1 0 22 -27 13 -66 -23 -34 -31 -39 -33 -46 -18 -6 16 -7 16 -7 -3 -1 -11
-12 -27 -26 -34 -14 -7 -25 -18 -25 -23 0 -5 -5 -5 -13 1 -10 8 -12 2 -11 -29
1 -35 -5 -44 -28 -40 -5 0 -8 -7 -9 -17 0 -9 -6 -1 -13 17 -9 25 -15 31 -20
22 -5 -8 -3 -16 4 -21 8 -5 10 -17 6 -35 -5 -18 -3 -25 4 -20 7 4 14 -2 17
-14 6 -25 6 -25 43 -6 16 8 31 24 35 35 4 11 10 18 15 15 11 -7 42 43 35 55
-3 6 -2 10 4 10 5 0 11 -5 13 -10 2 -6 19 5 38 23 19 19 48 37 63 41 15 4 25
11 22 15 -3 5 3 7 14 4 10 -3 22 0 26 7 5 8 10 8 21 -1 16 -13 19 -33 4 -24
-6 3 -13 -1 -16 -10 -4 -10 -13 -13 -25 -10 -14 5 -32 -7 -66 -41 -27 -26 -39
-41 -28 -33 11 8 26 22 33 32 7 9 18 17 23 17 6 0 -5 -16 -24 -37 -42 -44 -90
-136 -113 -218 -13 -46 -19 -55 -24 -40 -6 17 -9 13 -19 -20 -6 -22 -10 -60
-10 -85 1 -44 2 -44 10 14 5 32 11 61 14 64 7 7 4 -88 -5 -168 l-7 -65 -1 54
c-1 30 -5 51 -9 47 -10 -10 -5 -245 6 -281 5 -16 13 -55 16 -85 4 -30 14 -84
22 -120 16 -70 18 -83 29 -178 3 -35 9 -60 12 -57 4 3 15 -22 27 -57 17 -54
18 -64 5 -69 -21 -9 -50 1 -50 17 0 8 -15 47 -34 88 -19 40 -38 100 -41 131
-6 44 -10 54 -17 41 -15 -27 3 -183 32 -279 6 -19 5 -26 -3 -21 -7 3 -4 -1 7
-10 17 -14 15 -36 -3 -36 -17 0 -81 195 -81 243 0 15 -5 27 -11 27 -5 0 -8 4
-5 8 3 5 -1 9 -9 9 -8 0 -15 -7 -15 -16 0 -12 -6 -9 -20 9 -11 14 -20 30 -20
36 0 5 -20 29 -45 53 -38 36 -45 40 -45 22 0 -11 5 -23 10 -26 6 -3 10 -24 10
-46 0 -21 3 -39 8 -39 11 0 6 -100 -7 -113 -8 -8 -11 -8 -11 0 0 6 5 13 12 15
7 3 5 7 -6 11 -13 5 -19 1 -23 -14 -4 -14 -8 -17 -13 -9 -5 9 -9 9 -14 1 -4
-6 -2 -11 4 -11 6 0 8 -4 5 -10 -4 -6 1 -7 12 -4 16 5 16 4 -1 -10 -11 -9 -14
-16 -8 -16 7 0 12 -11 12 -25 0 -18 -4 -23 -16 -18 -13 5 -13 7 -2 14 7 5 9 9
3 10 -5 0 -21 2 -34 5 -19 4 -23 1 -18 -16 6 -23 -7 -35 -25 -23 -7 4 -17 8
-23 8 -5 0 -9 8 -9 17 1 10 -4 14 -12 11 -8 -3 -17 2 -20 12 -4 9 -13 14 -20
11 -8 -3 -14 1 -14 10 0 17 -22 14 -27 -3 -2 -6 24 -40 59 -75 35 -35 70 -72
78 -83 14 -17 14 -17 -5 -8 -34 18 -88 33 -96 27 -20 -12 0 -50 37 -69 21 -11
41 -23 42 -27 2 -5 17 -8 32 -8 16 0 32 -5 35 -10 4 -6 11 -8 16 -5 5 4 9 1 9
-4 0 -6 -6 -11 -12 -11 -7 -1 12 -14 42 -31 30 -16 48 -28 40 -25 -8 3 -40 12
-70 21 -30 9 -68 23 -83 31 -16 8 -37 14 -47 14 -11 0 -32 5 -47 11 -15 6 -39
16 -53 21 -14 6 -33 14 -42 19 -10 5 -30 9 -46 9 -15 0 -32 4 -38 9 -18 18
-88 31 -99 20 -7 -8 -6 -13 2 -16 6 -2 22 -13 35 -24 12 -12 53 -41 90 -66 62
-42 73 -45 155 -53 48 -4 108 -13 133 -19 25 -6 58 -13 74 -16 29 -6 30 -15 2
-19 -8 -1 -24 -10 -35 -20 -13 -12 -39 -19 -78 -20 -103 -5 -105 -5 -97 -18 4
-6 3 -8 -3 -5 -6 4 -24 0 -39 -8 l-29 -15 47 0 c26 0 69 -4 95 -9 26 -5 89
-14 138 -21 98 -12 282 -57 291 -71 7 -12 -3 -11 -25 0 -36 20 -177 24 -236 7
-30 -9 -55 -21 -55 -28 0 -7 5 -6 15 2 21 18 26 9 16 -26 -5 -16 -10 -23 -10
-16 -1 16 -21 16 -21 -1 0 -20 44 -37 109 -43 60 -6 123 -19 156 -33 93 -40
135 -62 135 -72 0 -8 -5 -7 -16 2 -22 18 -253 25 -314 9 -25 -6 -63 -13 -85
-16 -22 -2 -51 -8 -65 -13 -14 -5 -46 -15 -73 -21 -26 -7 -50 -17 -53 -21 -3
-5 -12 -9 -20 -9 -15 0 -175 -76 -184 -88 -3 -4 -23 -19 -45 -34 -44 -30 -108
-101 -147 -163 -31 -50 -42 -118 -28 -176 6 -24 12 -50 12 -56 1 -7 5 -13 10
-13 5 0 6 -4 3 -10 -3 -5 -2 -18 4 -27 8 -15 9 -12 7 11 -3 28 18 84 79 211
43 88 102 149 219 227 126 83 212 119 354 147 105 21 255 11 332 -22 21 -9 12
-12 -65 -18 -49 -4 -93 -5 -97 -3 -3 2 -8 -4 -10 -13 -7 -30 45 -68 142 -103
71 -27 169 -78 162 -85 -10 -10 54 25 108 59 159 103 201 134 217 163 10 18
21 33 26 33 4 0 3 9 -3 19 -5 11 -6 22 -1 25 5 3 11 15 14 26 3 11 1 18 -4 14
-5 -3 -9 -1 -9 5 0 5 5 13 11 17 6 3 9 22 7 40 -2 19 -1 34 3 34 4 0 5 10 1
22 -3 14 -2 19 6 14 7 -4 12 -14 12 -22 0 -8 5 -14 10 -14 6 0 10 -11 10 -24
0 -14 4 -27 9 -30 10 -7 25 22 22 41 -1 7 3 13 9 13 5 0 10 7 10 15 0 8 12 18
28 21 15 4 32 14 39 23 8 11 12 12 13 4 0 -7 5 -13 11 -13 5 0 7 6 3 13 -5 8
-2 7 10 -2 9 -8 15 -20 12 -27 -3 -8 0 -11 10 -7 11 4 12 9 5 16 -17 17 -13
31 4 17 10 -9 15 -9 15 -1 0 6 9 11 20 11 20 0 44 32 33 44 -3 3 1 6 10 6 12
0 17 9 18 33 0 17 3 26 6 20 6 -17 21 -16 39 1 12 13 12 15 -5 21 -10 3 -25 3
-34 0 -19 -8 -33 13 -19 27 6 6 8 17 5 24 -3 10 3 14 20 14 36 0 57 -10 57
-26 0 -25 32 -12 43 18 11 31 -17 52 -74 54 -29 2 -64 5 -77 9 -18 4 -22 3
-15 -7 8 -14 10 -19 12 -44 1 -9 6 -12 14 -8 7 5 7 1 -2 -10 -14 -16 -16 -15
-30 21 -8 21 -23 52 -32 68 -10 17 -30 54 -45 82 -15 30 -31 50 -37 46 -6 -3
-7 -1 -3 5 6 10 -147 291 -166 303 -5 3 -20 30 -34 59 -26 57 -42 62 -26 8 6
-18 16 -53 22 -78 7 -25 19 -65 26 -89 8 -25 14 -57 14 -72 0 -14 6 -42 14
-60 7 -19 16 -61 20 -93 4 -33 12 -66 18 -73 8 -10 7 -13 -2 -13 -8 0 -11 -12
-8 -35 2 -19 0 -35 -5 -35 -5 0 -1 -7 7 -16 24 -23 20 -43 -6 -36 -30 7 -36
17 -32 58 1 19 -1 34 -4 34 -4 0 -8 23 -9 50 -4 81 -7 98 -17 92 -5 -3 -6 3
-3 13 4 9 3 23 -1 29 -5 6 -12 29 -15 51 -4 22 -13 63 -21 90 -31 105 -44 162
-51 215 -7 61 -43 188 -58 208 -5 7 -7 15 -4 18 3 3 20 -24 38 -60 18 -36 35
-64 37 -61 3 3 14 -3 25 -12 11 -11 3 11 -22 57 -22 41 -39 85 -38 97 0 12
-12 48 -27 80 -36 73 -40 82 -67 168 -12 39 -27 88 -34 110 -8 22 -16 59 -20
83 -7 45 -25 50 -20 4 2 -15 0 -31 -5 -37 -12 -16 -21 -93 -12 -99 5 -3 5 -31
-1 -63 -5 -32 -9 -68 -9 -80 0 -13 -4 -20 -9 -17 -5 3 -6 -2 -2 -11 3 -10 0
-21 -8 -27 -11 -7 -11 -11 -1 -15 17 -7 15 -24 -2 -17 -8 3 -19 26 -26 52 -7
26 -16 52 -20 57 -4 6 -10 21 -13 35 -3 14 -15 59 -26 100 -14 50 -21 106 -21
168 0 81 3 100 28 150 15 31 30 59 35 60 4 2 7 9 7 16 0 6 14 28 30 48 21 25
28 42 23 55 -10 25 -29 43 -47 43 -9 0 -16 5 -16 10 0 6 5 10 10 10 6 0 10 5
10 10 0 16 -20 12 -26 -5z m-39 -45 c3 -5 2 -10 -4 -10 -5 0 -13 5 -16 10 -3
6 -2 10 4 10 5 0 13 -4 16 -10z m-47 -50 c-7 -11 -19 -18 -26 -15 -7 2 -15 -2
-18 -10 -4 -8 -12 -15 -20 -15 -8 0 -14 -4 -14 -8 0 -5 -7 -9 -16 -9 -11 0 -7
9 15 29 16 15 39 28 50 28 12 0 21 5 21 10 0 6 5 10 10 10 6 0 5 -8 -2 -20z
m59 14 c-3 -3 -12 -4 -19 -1 -8 3 -5 6 6 6 11 1 17 -2 13 -5z m-82 -44 c3 -5
1 -10 -4 -10 -6 0 -11 5 -11 10 0 6 2 10 4 10 3 0 8 -4 11 -10z m-45 -44 c0
-2 -7 -9 -15 -16 -12 -10 -15 -10 -15 4 0 9 7 16 15 16 8 0 15 -2 15 -4z m247
-398 c-3 -8 -6 -5 -6 6 -1 11 2 17 5 13 3 -3 4 -12 1 -19z m-280 -170 c-3 -8
-6 -5 -6 6 -1 11 2 17 5 13 3 -3 4 -12 1 -19z m365 -145 c4 -19 -17 -112 -27
-122 -9 -8 -25 20 -25 43 0 23 31 96 41 96 4 0 9 -8 11 -17z m56 -8 c-3 -3 -9
2 -12 12 -6 14 -5 15 5 6 7 -7 10 -15 7 -18z m-653 -475 c3 -6 -1 -7 -9 -4
-18 7 -21 14 -7 14 6 0 13 -4 16 -10z m-15 -41 c0 -5 -4 -9 -8 -9 -5 0 -9 7
-9 15 0 8 4 12 9 9 4 -3 8 -9 8 -15z m17 -25 c-3 -3 -12 -4 -19 -1 -8 3 -5 6
6 6 11 1 17 -2 13 -5z m380 -34 c-6 -11 -17 -20 -24 -20 -14 0 -15 5 -7 37 5
18 10 21 25 12 16 -8 17 -13 6 -29z m-55 -25 c-12 -22 -27 -2 -18 22 5 12 10
13 17 6 7 -7 8 -17 1 -28z m58 -90 c0 -12 -19 -12 -23 0 -4 9 -1 12 9 8 7 -3
14 -7 14 -8z m497 -17 c-3 -8 -6 -5 -6 6 -1 11 2 17 5 13 3 -3 4 -12 1 -19z
m-494 -38 c3 -11 0 -20 -6 -20 -8 0 -8 -3 0 -11 6 -6 9 -18 6 -26 -9 -22 -23
5 -23 45 0 35 15 43 23 12z m-317 -86 c18 -14 18 -14 -6 -3 -31 14 -36 19 -24
19 6 0 19 -7 30 -16z m329 -12 c-3 -3 -11 0 -18 7 -9 10 -8 11 6 5 10 -3 15
-9 12 -12z m-275 -12 c8 -5 11 -10 5 -10 -5 0 -17 5 -25 10 -8 5 -10 10 -5 10
6 0 17 -5 25 -10z m-85 -20 c3 -6 -1 -7 -9 -4 -18 7 -21 14 -7 14 6 0 13 -4
16 -10z m90 -48 c-3 -3 -11 0 -18 7 -9 10 -8 11 6 5 10 -3 15 -9 12 -12z m746
-66 c-18 -22 -31 -11 -28 24 2 29 2 29 21 10 16 -16 17 -22 7 -34z m-436 -16
c-3 -5 -10 -10 -16 -10 -5 0 -9 5 -9 10 0 6 7 10 16 10 8 0 12 -4 9 -10z m456
-10 c2 -33 4 -38 12 -46 9 -10 9 -24 -1 -24 -11 0 -39 64 -34 78 6 19 22 14
23 -8z m-451 -20 c-12 -7 -12 -10 -1 -10 7 0 11 -6 7 -15 -3 -8 -2 -15 2 -15
4 0 8 -9 8 -20 0 -11 -6 -20 -13 -20 -6 0 -11 8 -11 18 1 9 -2 29 -5 45 -6 22
-4 27 10 27 15 0 16 -2 3 -10z m33 -97 c-7 -2 -19 -2 -25 0 -7 3 -2 5 12 5 14
0 19 -2 13 -5z m14 -49 c-3 -3 -12 -4 -19 -1 -8 3 -5 6 6 6 11 1 17 -2 13 -5z
m-72 -174 c3 -5 -1 -10 -9 -10 -8 0 -18 5 -21 10 -3 6 1 10 9 10 8 0 18 -4 21
-10z"/>
<path d="M3070 3260 c0 -5 5 -10 10 -10 6 0 10 5 10 10 0 6 -4 10 -10 10 -5 0
-10 -4 -10 -10z"/>
<path d="M2290 3205 c0 -30 4 -55 8 -55 5 0 10 25 11 55 1 33 -2 55 -8 55 -7
0 -11 -23 -11 -55z"/>
<path d="M2545 3250 c-3 -5 -1 -10 4 -10 6 0 11 5 11 10 0 6 -2 10 -4 10 -3 0
-8 -4 -11 -10z"/>
<path d="M2434 3190 c0 -28 3 -50 8 -50 4 0 8 23 8 50 0 28 -3 50 -7 50 -5 0
-8 -23 -9 -50z"/>
<path d="M2473 3190 c0 -30 2 -43 4 -27 2 15 2 39 0 55 -2 15 -4 2 -4 -28z"/>
<path d="M2573 3214 c-3 -8 -2 -19 3 -24 5 -5 10 1 10 16 2 27 -4 31 -13 8z"/>
<path d="M4476 3177 c3 -10 9 -15 12 -12 3 3 0 11 -7 18 -10 9 -11 8 -5 -6z"/>
<path d="M2496 3155 c4 -8 8 -15 10 -15 2 0 4 7 4 15 0 8 -4 15 -10 15 -5 0
-7 -7 -4 -15z"/>
<path d="M2390 3150 c0 -5 5 -10 10 -10 6 0 10 5 10 10 0 6 -4 10 -10 10 -5 0
-10 -4 -10 -10z"/>
<path d="M4495 3150 c-3 -5 1 -10 10 -10 9 0 13 5 10 10 -3 6 -8 10 -10 10 -2
0 -7 -4 -10 -10z"/>
<path d="M2541 3133 c-1 -26 14 -31 23 -7 3 8 2 13 -3 9 -5 -3 -12 1 -14 7 -3
7 -6 3 -6 -9z"/>
<path d="M2900 3138 c0 -17 43 -105 61 -122 20 -21 8 16 -26 76 -19 35 -35 55
-35 46z"/>
<path d="M4183 3143 c9 -2 23 -2 30 0 6 3 -1 5 -18 5 -16 0 -22 -2 -12 -5z"/>
<path d="M4268 3143 c7 -3 16 -2 19 1 4 3 -2 6 -13 5 -11 0 -14 -3 -6 -6z"/>
<path d="M4310 3140 c0 -5 5 -10 11 -10 5 0 7 5 4 10 -3 6 -8 10 -11 10 -2 0
-4 -4 -4 -10z"/>
<path d="M4348 3133 c6 -2 18 -2 25 0 6 3 1 5 -13 5 -14 0 -19 -2 -12 -5z"/>
<path d="M2410 3120 c0 -5 5 -10 10 -10 6 0 10 5 10 10 0 6 -4 10 -10 10 -5 0
-10 -4 -10 -10z"/>
<path d="M2481 3123 c0 -6 -4 -20 -7 -30 -5 -14 -4 -15 5 -7 7 7 11 20 8 30
-3 11 -5 14 -6 7z"/>
<path d="M4473 3123 c9 -2 23 -2 30 0 6 3 -1 5 -18 5 -16 0 -22 -2 -12 -5z"/>
<path d="M2322 3070 c0 -19 2 -27 5 -17 2 9 2 25 0 35 -3 9 -5 1 -5 -18z"/>
<path d="M2390 3086 c0 -8 5 -18 10 -21 6 -3 10 3 10 14 0 12 -4 21 -10 21 -5
0 -10 -6 -10 -14z"/>
<path d="M2430 3090 c0 -5 5 -10 10 -10 6 0 10 5 10 10 0 6 -4 10 -10 10 -5 0
-10 -4 -10 -10z"/>
<path d="M2350 3041 c0 -17 5 -31 10 -31 6 0 10 11 10 24 0 14 -4 28 -10 31
-6 4 -10 -7 -10 -24z"/>
<path d="M2470 3062 c0 -4 9 -8 20 -8 11 0 20 4 20 8 0 4 -9 8 -20 8 -11 0
-20 -4 -20 -8z"/>
<path d="M2696 3045 c-3 -8 -1 -15 3 -15 5 0 11 7 15 15 3 8 1 15 -3 15 -5 0
-11 -7 -15 -15z"/>
<path d="M2321 3014 c0 -11 3 -14 6 -6 3 7 2 16 -1 19 -3 4 -6 -2 -5 -13z"/>
<path d="M2252 2985 c1 -19 5 -35 9 -35 4 0 7 16 7 35 0 19 -4 35 -9 35 -4 0
-8 -16 -7 -35z"/>
<path d="M2522 2995 c0 -16 2 -22 5 -12 2 9 2 23 0 30 -3 6 -5 -1 -5 -18z"/>
<path d="M2489 2997 c-14 -10 -14 -14 -3 -25 18 -16 29 -15 15 1 -8 10 -7 17
1 25 16 16 8 15 -13 -1z"/>
<path d="M2677 3003 c-4 -3 -7 -11 -7 -17 0 -6 5 -5 12 2 6 6 9 14 7 17 -3 3
-9 2 -12 -2z"/>
<path d="M2430 2991 c0 -5 5 -13 10 -16 6 -3 10 -2 10 4 0 5 -4 13 -10 16 -5
3 -10 2 -10 -4z"/>
<path d="M2646 2924 c-9 -26 -14 -50 -11 -52 2 -3 6 1 9 9 2 8 9 29 15 48 17
53 5 48 -13 -5z"/>
<path d="M2323 2922 c0 -18 4 -35 9 -38 10 -6 9 24 -2 51 -6 16 -8 14 -7 -13z"/>
<path d="M4930 2899 c0 -6 -7 -9 -14 -6 -10 4 -13 1 -9 -9 6 -17 19 -18 27 -1
5 9 7 9 12 -1 3 -6 10 -10 15 -6 5 3 3 12 -5 20 -17 17 -26 18 -26 3z"/>
<path d="M4894 2854 c3 -7 0 -16 -6 -20 -7 -4 -8 -3 -4 4 12 19 -79 15 -95 -4
-9 -11 -10 -17 -1 -23 8 -4 5 -11 -8 -19 -11 -6 -21 -8 -25 -2 -3 5 -1 11 5
15 12 7 14 25 3 25 -5 0 -26 -16 -47 -35 -33 -29 -36 -35 -19 -35 11 0 38 -7
59 -16 34 -14 214 -99 237 -112 5 -2 7 48 6 112 -3 109 -5 116 -24 117 -11 1
-35 2 -53 4 -25 2 -32 -1 -28 -11z m-39 -24 c3 -5 1 -10 -4 -10 -6 0 -11 5
-11 10 0 6 2 10 4 10 3 0 8 -4 11 -10z m-25 -64 c0 -2 -7 -7 -16 -10 -8 -3
-12 -2 -9 4 6 10 25 14 25 6z"/>
<path d="M2250 2830 c0 -5 5 -10 11 -10 5 0 7 5 4 10 -3 6 -8 10 -11 10 -2 0
-4 -4 -4 -10z"/>
<path d="M2285 2830 c3 -5 8 -10 11 -10 2 0 4 5 4 10 0 6 -5 10 -11 10 -5 0
-7 -4 -4 -10z"/>
<path d="M2315 2819 c-11 -16 -1 -19 13 -3 7 8 8 14 3 14 -5 0 -13 -5 -16 -11z"/>
<path d="M2100 2735 c0 -14 5 -25 10 -25 6 0 10 11 10 25 0 14 -4 25 -10 25
-5 0 -10 -11 -10 -25z"/>
<path d="M3926 2723 c-6 -14 -5 -15 5 -6 7 7 10 15 7 18 -3 3 -9 -2 -12 -12z"/>
<path d="M2070 2610 c-9 -6 -10 -10 -3 -10 6 0 15 5 18 10 8 12 4 12 -15 0z"/>
<path d="M2220 2595 c0 -5 5 -17 10 -25 5 -8 10 -10 10 -5 0 6 -5 17 -10 25
-5 8 -10 11 -10 5z"/>
<path d="M2206 2546 c21 -15 30 -14 19 3 -3 6 -14 11 -23 11 -13 0 -13 -2 4
-14z"/>
<path d="M4931 2539 c-13 -11 -30 -18 -36 -15 -6 2 -20 -6 -29 -19 -10 -13
-24 -21 -32 -18 -10 3 -13 -3 -11 -26 2 -34 17 -43 17 -11 0 11 5 20 11 20 7
0 9 -11 6 -30 -6 -28 0 -36 26 -31 5 1 7 -4 5 -10 -6 -18 -58 -20 -87 -4 -19
11 -21 14 -8 15 9 0 17 4 17 9 0 4 -12 6 -27 4 -23 -4 -25 -2 -13 7 12 9 11
10 -8 5 -15 -4 -24 -2 -28 9 -3 8 -12 12 -20 9 -8 -3 -14 -1 -14 5 0 6 6 13
13 15 7 3 5 6 -5 6 -10 1 -30 14 -44 30 -23 26 -29 28 -56 19 -17 -6 -68 -8
-119 -6 -82 5 -91 4 -126 -20 -21 -14 -40 -29 -43 -32 -3 -4 -18 -12 -35 -17
-18 -6 -28 -16 -26 -24 2 -8 4 -19 4 -26 0 -7 14 -15 31 -19 67 -13 181 -81
176 -104 0 -3 5 -22 12 -43 10 -29 24 -43 57 -60 45 -23 114 -98 78 -84 -12 4
-16 3 -11 -4 4 -6 0 -15 -7 -20 -9 -6 -10 -12 -4 -16 14 -11 19 -53 6 -53 -5
0 -12 6 -14 13 -3 6 -6 2 -6 -11 -1 -13 -5 -20 -11 -17 -6 3 -5 -6 2 -21 10
-21 14 -24 16 -11 8 40 28 10 22 -32 -1 -8 4 -12 13 -8 18 7 38 -28 37 -63 -1
-14 2 -37 6 -52 5 -22 3 -28 -10 -28 -13 0 -17 -7 -14 -27 2 -20 8 -27 21 -25
10 2 17 -3 17 -13 0 -10 -7 -15 -17 -13 -20 3 -27 -36 -12 -62 6 -11 8 -6 9
18 0 38 16 43 22 7 3 -13 1 -22 -3 -19 -5 3 -9 -1 -9 -10 0 -8 -4 -16 -10 -18
-5 -1 -11 -14 -14 -28 -2 -14 -9 -24 -15 -22 -7 1 -9 -7 -5 -25 4 -20 3 -24
-4 -14 -8 11 -12 5 -17 -25 -8 -44 -50 -140 -73 -166 -8 -10 -12 -18 -9 -18 6
0 -3 -18 -55 -107 -45 -79 -65 -119 -77 -156 -7 -21 -19 -41 -27 -44 -8 -3
-14 -14 -14 -24 0 -10 -4 -19 -10 -19 -20 0 -10 -35 17 -57 18 -16 22 -23 10
-23 -8 0 -18 6 -20 13 -3 7 -6 5 -6 -5 -1 -10 4 -18 9 -18 6 0 10 -11 10 -25
0 -17 4 -23 15 -19 8 4 12 10 9 15 -3 5 0 9 5 9 14 0 14 -17 0 -25 -5 -4 -8
-12 -6 -18 2 -7 -3 -19 -11 -27 -14 -13 -14 -15 1 -18 21 -4 22 -21 2 -28 -8
-4 -15 -10 -15 -16 0 -5 4 -6 10 -3 5 3 15 -3 21 -13 8 -12 20 -18 33 -15 15
2 17 1 6 -4 -37 -19 -57 -40 -62 -66 -4 -18 -1 -27 8 -27 7 0 16 -5 19 -10 4
-6 1 -9 -5 -8 -7 2 -14 -6 -16 -17 -2 -16 2 -15 24 10 14 17 23 22 19 13 -4
-10 1 -24 11 -35 16 -16 16 -17 0 -10 -12 4 -18 2 -18 -8 0 -7 8 -15 18 -17
11 -2 13 -6 5 -11 -6 -4 -19 0 -27 9 -9 8 -16 11 -16 5 0 -6 0 -14 0 -18 0 -5
5 -9 10 -9 6 -1 15 -2 20 -3 16 -2 11 -31 -5 -31 -8 0 -15 -9 -15 -21 0 -16 4
-19 22 -13 21 6 21 6 5 -11 -13 -12 -15 -21 -7 -29 5 -7 7 -16 3 -19 -3 -4 -1
-7 5 -7 7 0 12 9 12 19 0 11 4 22 10 26 5 3 8 -7 7 -25 -1 -16 -7 -30 -14 -30
-6 0 -11 -9 -10 -20 1 -12 7 -18 14 -16 17 7 22 -14 10 -47 -6 -19 -6 -32 3
-42 6 -8 9 -24 5 -37 -5 -18 -4 -20 4 -8 9 13 11 12 12 -5 1 -11 2 -27 1 -34
0 -8 5 -20 13 -25 19 -16 25 -76 8 -76 -8 0 -11 5 -8 10 3 6 0 10 -7 10 -10 0
-10 2 1 9 8 6 9 10 2 12 -15 5 -52 115 -45 133 3 9 1 16 -4 16 -6 0 -14 17
-17 38 -3 20 -10 45 -16 54 -5 10 -9 25 -9 35 0 31 -34 163 -42 163 -4 0 -8
20 -8 45 0 25 -5 45 -11 45 -5 0 -8 4 -5 8 2 4 -2 41 -10 81 -7 41 -15 89 -16
108 -1 18 -6 33 -10 33 -4 0 -5 6 -2 14 10 27 -13 25 -27 -2 -8 -15 -18 -30
-24 -34 -5 -4 -6 -8 -1 -8 4 0 1 -11 -7 -24 -9 -12 -19 -40 -23 -61 -4 -23
-10 -32 -14 -25 -9 14 -19 -48 -24 -149 -2 -35 -8 -66 -13 -70 -14 -9 -24 -41
-13 -41 5 0 1 -13 -8 -30 -22 -39 -48 -39 -57 0 -4 16 -10 30 -15 30 -4 0 -10
9 -13 20 -3 11 -10 20 -15 20 -6 0 -50 -54 -98 -121 -48 -67 -93 -123 -100
-126 -7 -2 -17 -17 -24 -32 -6 -16 -27 -41 -46 -56 -19 -15 -34 -33 -34 -41 0
-8 -7 -14 -16 -14 -8 0 -12 -5 -9 -10 3 -6 -2 -13 -12 -17 -21 -7 -33 -22 -33
-40 0 -19 816 -19 824 0 5 9 7 9 12 0 4 -10 43 -13 142 -13 106 0 133 3 124
12 -7 7 -12 22 -12 34 0 12 -7 25 -16 28 -9 3 -12 11 -8 18 5 7 7 27 5 45 -2
27 1 33 16 32 11 0 13 -3 5 -6 -10 -4 -9 -8 5 -19 14 -11 15 -13 3 -14 -13 0
-13 -1 0 -10 13 -9 13 -11 0 -20 -11 -7 -11 -10 -2 -10 7 0 10 -5 6 -11 -3 -6
0 -15 7 -20 10 -6 11 -9 2 -9 -7 0 -13 -4 -13 -10 0 -5 7 -10 15 -10 8 0 14
-6 13 -12 -2 -10 24 -14 100 -16 l102 -3 0 585 c-1 322 -5 588 -10 591 -4 3
-11 23 -15 45 -4 23 -11 37 -17 34 -6 -4 -5 2 1 15 7 12 8 21 2 21 -5 0 -12
-6 -15 -12 -3 -7 -3 0 1 15 4 23 1 29 -15 33 -16 5 -19 13 -17 49 1 25 -2 42
-7 39 -11 -7 -10 7 1 25 8 13 12 13 27 0 16 -13 16 -12 4 7 -7 12 -27 29 -43
39 -25 15 -28 22 -25 51 2 19 0 34 -5 34 -5 0 -6 10 -2 23 7 24 13 53 14 77 1
13 2 13 11 0 7 -11 11 -9 19 12 9 25 8 45 -5 100 -10 45 4 96 29 104 12 5 26
7 31 6 4 -2 14 3 22 9 11 9 14 68 14 321 l0 311 -30 -6 c-32 -7 -38 1 -18 21
19 19 5 13 -21 -9z m-121 -649 c0 -5 -4 -10 -9 -10 -6 0 -13 5 -16 10 -3 6 1
10 9 10 9 0 16 -4 16 -10z m-310 -770 c0 -5 -5 -10 -11 -10 -5 0 -7 5 -4 10 3
6 8 10 11 10 2 0 4 -4 4 -10z m247 -5 c8 -9 13 -21 10 -29 -3 -7 -1 -19 3 -26
5 -8 4 -22 -1 -32 -7 -12 -6 -24 1 -36 8 -11 10 -12 7 -2 -4 18 16 40 37 40
26 0 15 -32 -14 -43 -12 -4 -11 -6 3 -6 9 -1 17 -6 17 -12 0 -7 -11 -9 -30 -5
-17 3 -30 1 -30 -4 0 -6 3 -9 8 -9 21 4 42 -2 42 -12 0 -7 -9 -9 -24 -5 -25 6
-45 -17 -26 -29 6 -4 10 -1 10 4 0 6 9 11 19 11 14 0 18 -5 14 -20 -3 -11 -13
-20 -22 -20 -14 0 -14 -2 -1 -11 12 -9 13 -12 1 -16 -11 -4 -11 -7 0 -14 21
-13 3 -22 -20 -9 -12 6 -21 7 -21 2 0 -6 9 -12 20 -15 11 -3 20 -10 20 -16 0
-9 -5 -9 -20 -1 -11 6 -20 7 -20 2 0 -5 10 -14 23 -21 l22 -12 -22 5 c-13 2
-23 0 -23 -5 0 -5 6 -9 14 -9 9 0 14 -9 13 -21 -1 -17 -6 -20 -29 -15 -15 3
-28 1 -28 -4 0 -6 11 -10 25 -10 34 0 32 -20 -2 -21 -21 -1 -23 -2 -8 -6 11
-3 25 -10 30 -15 7 -7 2 -9 -16 -4 -19 4 -29 1 -33 -9 -3 -8 -11 -15 -18 -15
-9 0 -8 3 2 10 8 5 13 10 10 11 -42 7 -54 10 -58 13 -8 9 19 46 33 46 13 0 13
3 3 20 -15 23 -30 27 -22 5 4 -9 0 -15 -8 -15 -9 0 -14 9 -13 23 1 14 8 21 19
19 23 -4 20 19 -4 25 -19 5 -20 6 -3 19 16 12 16 15 3 24 -12 9 -10 10 8 5 16
-5 22 -2 22 10 0 12 -6 15 -20 10 -16 -5 -20 -2 -20 14 0 12 3 20 8 20 18 -3
32 2 32 11 0 6 -9 10 -20 10 -25 0 -26 17 -2 23 10 3 6 5 -10 6 -19 1 -28 -4
-28 -14 0 -8 -4 -15 -8 -15 -5 0 -2 27 6 60 13 51 17 58 32 50 10 -5 20 -6 24
-3 3 3 6 1 6 -5 0 -7 4 -12 9 -12 4 0 11 20 13 45 5 39 21 75 35 75 2 0 11 -7
20 -15z m73 -35 c12 -8 11 -10 -7 -10 -12 0 -25 5 -28 10 -8 13 15 13 35 0z
m-413 -42 c-3 -8 -6 -5 -6 6 -1 11 2 17 5 13 3 -3 4 -12 1 -19z m203 1 c0 -5
-7 -9 -15 -9 -8 0 -15 7 -15 15 0 9 6 12 15 9 8 -4 15 -10 15 -15z m210 11 c0
-5 -9 -10 -20 -10 -11 0 -20 5 -20 10 0 6 9 10 20 10 11 0 20 -4 20 -10z
m-255 -10 c3 -6 -4 -10 -17 -10 -18 0 -20 2 -8 10 19 12 18 12 25 0z m-157
-52 c1 -32 1 -32 -12 -7 -10 20 -6 36 10 39 1 0 1 -14 2 -32z m102 -2 c0 -3
-4 -8 -10 -11 -5 -3 -10 -1 -10 4 0 6 5 11 10 11 6 0 10 -2 10 -4z m70 -3 c0
-5 -5 -15 -10 -23 -7 -12 -9 -10 -7 8 1 19 17 33 17 15z m-210 -53 c-8 -5 -17
-7 -19 -4 -3 3 1 9 9 14 8 5 17 7 19 4 3 -3 -1 -9 -9 -14z m207 -22 c-3 -8 -6
-5 -6 6 -1 11 2 17 5 13 3 -3 4 -12 1 -19z m37 -19 c-6 -11 -24 -2 -24 11 0 5
7 7 15 4 8 -4 12 -10 9 -15z m-24 -23 c0 -2 -7 -6 -15 -10 -8 -3 -15 -1 -15 4
0 6 7 10 15 10 8 0 15 -2 15 -4z m-120 -40 c0 -3 -4 -8 -10 -11 -5 -3 -10 -1
-10 4 0 6 5 11 10 11 6 0 10 -2 10 -4z m-10 -41 c0 -8 -4 -15 -10 -15 -5 0 -7
7 -4 15 4 8 8 15 10 15 2 0 4 -7 4 -15z m147 -47 c-3 -8 -6 -5 -6 6 -1 11 2
17 5 13 3 -3 4 -12 1 -19z m3 -58 c0 -5 -2 -10 -4 -10 -3 0 -8 5 -11 10 -3 6
-1 10 4 10 6 0 11 -4 11 -10z m128 -66 c-2 -31 -5 -35 -25 -31 -12 2 -20 0
-17 -4 3 -5 11 -9 19 -9 8 0 17 -5 21 -12 5 -8 0 -9 -14 -6 -12 4 -22 2 -22
-3 0 -5 6 -9 14 -9 8 0 18 -5 22 -12 5 -8 0 -9 -14 -6 -12 4 -22 3 -22 -2 0
-4 8 -10 18 -12 26 -7 24 -38 -2 -39 -19 0 -19 -1 4 -11 21 -9 22 -12 7 -15
-18 -5 -18 -5 0 -20 16 -13 16 -14 1 -9 -10 3 -18 1 -18 -4 0 -6 6 -10 13 -10
9 0 14 -13 15 -36 1 -30 -1 -35 -15 -30 -15 6 -14 4 2 -14 13 -14 14 -20 5
-20 -9 0 -7 -5 6 -15 14 -11 16 -15 4 -15 -11 0 -10 -3 4 -11 15 -9 16 -13 5
-20 -12 -7 -11 -9 1 -9 13 0 13 -1 0 -10 -13 -9 -13 -11 0 -20 13 -8 13 -10
-1 -10 -18 0 -29 20 -29 54 0 12 -8 32 -17 45 -9 14 -11 21 -5 17 15 -9 15 -7
1 32 -7 20 -15 29 -22 25 -7 -4 -6 0 1 10 10 12 13 41 10 106 -3 50 -7 93 -10
97 -14 13 5 34 26 29 12 -3 9 1 -8 9 -23 11 -25 14 -11 20 9 3 22 3 27 -1 7
-3 8 -1 4 5 -4 7 -1 12 9 12 12 0 15 -9 13 -36z m-335 6 c-3 -11 -7 -20 -9
-20 -2 0 -4 9 -4 20 0 11 4 20 9 20 5 0 7 -9 4 -20z m202 -180 c-3 -5 -12 -10
-18 -10 -7 0 -6 4 3 10 19 12 23 12 15 0z m-75 -230 c0 -5 -5 -10 -11 -10 -5
0 -7 5 -4 10 3 6 8 10 11 10 2 0 4 -4 4 -10z"/>
<path d="M4730 1061 c0 -6 4 -13 10 -16 6 -3 7 1 4 9 -7 18 -14 21 -14 7z"/>
<path d="M4727 1023 c-4 -3 -7 -13 -7 -22 1 -13 3 -13 11 2 11 19 8 33 -4 20z"/>
<path d="M4631 1007 c-8 -10 -7 -14 4 -14 8 0 15 6 15 14 0 7 -2 13 -4 13 -2
0 -9 -6 -15 -13z"/>
<path d="M4726 945 c-3 -8 -1 -15 4 -15 6 0 10 7 10 15 0 8 -2 15 -4 15 -2 0
-6 -7 -10 -15z"/>
<path d="M4717 893 c-4 -3 -7 -15 -7 -26 0 -25 9 -17 15 12 4 22 2 25 -8 14z"/>
<path d="M4671 781 c-1 -24 2 -32 9 -25 7 7 7 19 1 35 -9 23 -10 22 -10 -10z"/>
<path d="M4708 743 c7 -3 16 -2 19 1 4 3 -2 6 -13 5 -11 0 -14 -3 -6 -6z"/>
<path d="M4650 691 c0 -6 5 -13 10 -16 6 -3 10 1 10 9 0 9 -4 16 -10 16 -5 0
-10 -4 -10 -9z"/>
<path d="M2245 2520 c3 -5 8 -10 11 -10 2 0 4 5 4 10 0 6 -5 10 -11 10 -5 0
-7 -4 -4 -10z"/>
<path d="M2107 2470 c-4 -14 3 -23 26 -35 36 -18 40 -18 32 -4 -4 6 3 13 15
16 20 5 18 8 -16 24 -49 23 -51 23 -57 -1z"/>
<path d="M2186 2417 c3 -10 9 -15 12 -12 3 3 0 11 -7 18 -10 9 -11 8 -5 -6z"/>
<path d="M1972 2376 c-9 -19 -8 -24 3 -22 22 3 28 13 18 31 -8 14 -11 13 -21
-9z"/>
<path d="M2225 2390 c4 -6 11 -8 16 -5 14 9 11 15 -7 15 -8 0 -12 -5 -9 -10z"/>
<path d="M2270 2350 c-12 -7 -11 -13 10 -37 14 -15 33 -33 42 -41 9 -7 24 -19
33 -28 27 -27 16 0 -15 36 -16 19 -30 38 -30 43 0 4 -7 7 -16 7 -10 0 -14 6
-10 15 6 17 6 18 -14 5z"/>
<path d="M1956 2319 c3 -5 12 -9 21 -9 19 0 9 13 -12 16 -8 1 -13 -2 -9 -7z"/>
<path d="M2420 2295 c0 -3 6 -13 13 -21 6 -8 17 -20 22 -27 6 -7 16 -23 22
-37 8 -18 12 -20 12 -8 1 26 -18 61 -45 81 -13 10 -24 15 -24 12z"/>
<path d="M3951 2204 c0 -11 3 -14 6 -6 3 7 2 16 -1 19 -3 4 -6 -2 -5 -13z"/>
<path d="M2524 2165 c-3 -13 -4 -30 -1 -37 3 -7 6 -3 6 8 1 35 51 48 51 14 0
-11 4 -20 10 -20 13 0 1 32 -18 48 -24 19 -41 14 -48 -13z"/>
<path d="M3130 2185 c0 -5 5 -17 10 -25 5 -8 10 -10 10 -5 0 6 -5 17 -10 25
-5 8 -10 11 -10 5z"/>
<path d="M2491 2164 c0 -11 3 -14 6 -6 3 7 2 16 -1 19 -3 4 -6 -2 -5 -13z"/>
<path d="M1925 2090 c3 -5 11 -10 16 -10 6 0 7 5 4 10 -3 6 -11 10 -16 10 -6
0 -7 -4 -4 -10z"/>
<path d="M3930 2076 c-5 -15 -14 -24 -20 -21 -12 8 -13 -8 -1 -20 5 -6 11 -17
14 -25 2 -8 3 -3 1 13 -2 15 1 27 6 27 10 0 24 39 16 47 -3 3 -10 -6 -16 -21z"/>
<path d="M3430 2068 c0 -4 14 -8 30 -8 17 0 30 2 30 4 0 2 -13 6 -30 8 -16 3
-30 1 -30 -4z"/>
<path d="M3947 2031 c-4 -18 -7 -43 -6 -55 1 -11 5 -1 10 24 5 25 7 49 6 55
-2 5 -7 -5 -10 -24z"/>
<path d="M2010 2022 c0 -4 13 -21 28 -38 15 -17 36 -43 47 -58 22 -29 40 -33
48 -12 4 10 1 13 -9 9 -9 -3 -13 0 -11 8 2 8 2 11 0 7 -6 -10 -33 2 -33 14 0
5 -16 25 -35 44 -19 18 -35 30 -35 26z"/>
<path d="M3890 2010 c0 -5 5 -10 10 -10 6 0 10 5 10 10 0 6 -4 10 -10 10 -5 0
-10 -4 -10 -10z"/>
<path d="M2330 1966 c0 -9 5 -16 10 -16 6 0 10 4 10 9 0 6 -4 13 -10 16 -5 3
-10 -1 -10 -9z"/>
<path d="M2263 1913 c-7 -3 -13 -12 -13 -21 0 -15 2 -15 10 -2 8 12 12 13 19
2 6 -11 10 -10 15 3 3 9 6 18 6 19 0 4 -24 3 -37 -1z"/>
<path d="M2692 1900 c0 -14 2 -19 5 -12 2 6 2 18 0 25 -3 6 -5 1 -5 -13z"/>
<path d="M2152 1769 c-7 -12 -20 -18 -27 -15 -23 8 -28 -12 -6 -23 25 -14 44
-14 36 -1 -3 5 -1 19 5 31 15 27 8 34 -8 8z"/>
<path d="M1950 1520 c-30 -5 -88 -9 -128 -9 -87 0 -116 -13 -52 -22 60 -9 178
-28 187 -31 16 -4 123 14 123 20 0 4 14 13 30 20 17 8 30 18 30 23 0 11 -112
10 -190 -1z"/>
<path d="M1690 1390 c0 -6 -4 -9 -9 -5 -5 3 -12 1 -16 -5 -4 -7 -12 -7 -25 0
-17 9 -19 8 -13 -7 19 -53 46 -72 143 -101 88 -27 154 -33 268 -27 130 7 208
33 199 66 -3 12 0 16 9 12 8 -3 14 0 14 6 0 7 -6 13 -12 15 -51 14 -119 26
-148 26 -19 0 -42 0 -50 0 -53 1 -280 10 -305 13 -17 2 -36 7 -43 11 -7 4 -12
2 -12 -4z"/>
<path d="M3276 1137 c-15 -27 -26 -51 -23 -53 8 -9 58 67 55 84 -2 11 -12 2
-32 -31z"/>
<path d="M4310 881 c0 -6 5 -13 10 -16 6 -3 10 1 10 9 0 9 -4 16 -10 16 -5 0
-10 -4 -10 -9z"/>
<path d="M2656 873 c-4 -4 -53 -12 -109 -19 -132 -16 -190 -30 -257 -62 l-55
-26 120 -8 c66 -4 141 -5 167 -2 26 3 89 0 139 -7 59 -8 93 -9 97 -2 4 5 26
20 50 33 56 32 55 54 -4 74 -26 9 -51 13 -57 9 -6 -3 -7 -1 -3 6 6 9 0 10 -21
5 -15 -4 -30 -8 -32 -10 -2 -2 -9 1 -16 6 -7 5 -15 7 -19 3z"/>
<path d="M4331 846 c-9 -10 -9 -16 -1 -21 6 -4 8 -15 5 -26 -4 -11 -2 -19 4
-19 6 0 11 18 11 40 0 44 -2 47 -19 26z"/>
<path d="M4341 754 c0 -11 3 -14 6 -6 3 7 2 16 -1 19 -3 4 -6 -2 -5 -13z"/>
<path d="M2642 694 c-8 -14 -49 -20 -150 -24 -7 0 -10 -5 -6 -12 4 -7 3 -8 -5
-4 -6 4 -25 0 -43 -8 -17 -9 -36 -16 -43 -16 -6 0 -16 -5 -22 -11 -7 -7 -35
-20 -64 -30 -28 -10 -59 -25 -68 -34 -17 -17 -89 -65 -97 -65 -4 0 -46 -36
-146 -129 -52 -48 -107 -125 -112 -155 -1 -6 -5 -17 -10 -24 -14 -23 -17 -86
-5 -134 6 -27 14 -48 17 -48 4 0 7 37 8 82 0 53 5 83 12 86 7 2 12 10 12 17 0
7 7 15 15 19 13 5 13 1 1 -29 -8 -18 -15 -58 -16 -87 -3 -95 -6 -89 53 -86
l52 3 7 70 c6 68 37 168 70 230 17 31 85 106 128 140 14 10 59 37 100 58 41
21 85 47 98 58 12 10 26 19 31 19 5 0 11 3 13 8 4 10 86 49 121 57 15 4 27 11
27 15 0 5 9 11 19 15 11 3 22 12 25 20 7 20 -11 19 -22 -1z"/>
<path d="M4366 675 c4 -8 10 -12 15 -9 11 6 2 24 -11 24 -5 0 -7 -7 -4 -15z"/>
<path d="M1933 448 c-40 -28 -48 -46 -67 -153 -2 -11 -7 -33 -10 -50 -4 -16 9
3 29 43 20 39 41 72 46 72 5 0 9 7 9 15 0 7 6 18 13 22 14 9 37 48 37 63 0 16
-23 11 -57 -12z"/>
<path d="M2265 423 c-28 -27 -54 -49 -58 -50 -4 -2 -7 -5 -7 -8 0 -2 -14 -19
-31 -37 -62 -69 -109 -184 -109 -270 l0 -58 45 0 45 0 0 78 c0 42 6 100 14
129 16 59 56 143 68 143 4 0 8 5 8 12 0 7 21 34 47 60 61 62 43 62 -22 1z"/>
<path d="M2407 423 c-4 -3 -7 -13 -7 -22 1 -13 3 -13 11 2 11 19 8 33 -4 20z"/>
<path d="M2387 356 c-4 -10 -5 -21 -2 -24 9 -9 17 6 13 25 -3 17 -4 17 -11 -1z"/>
<path d="M4437 269 c4 -13 8 -18 11 -10 2 7 -1 18 -6 23 -8 8 -9 4 -5 -13z"/>
<path d="M2380 265 c0 -8 -6 -15 -12 -15 -9 0 -8 -4 2 -11 11 -8 12 -12 2 -16
-8 -3 -5 -11 10 -24 17 -13 19 -19 8 -19 -10 -1 -9 -4 5 -10 19 -9 19 -9 -2
-16 -26 -7 -31 -24 -8 -24 18 0 20 -20 3 -20 -7 -1 -2 -7 11 -14 l24 -13 -29
-11 -29 -10 27 -1 c28 -1 51 -21 24 -21 -8 0 -17 -4 -20 -9 -3 -4 6 -6 19 -3
25 4 35 -12 13 -21 -7 -3 2 -6 20 -6 17 -1 32 2 32 7 0 4 -11 28 -25 54 -27
51 -45 110 -52 176 -5 39 -23 61 -23 27z"/>
<path d="M2178 123 c7 -3 16 -2 19 1 4 3 -2 6 -13 5 -11 0 -14 -3 -6 -6z"/>
<path d="M2185 90 c-25 -11 1 -11 35 0 20 6 21 8 5 8 -11 0 -29 -3 -40 -8z"/>
<path d="M4485 90 c3 -5 8 -10 11 -10 2 0 4 5 4 10 0 6 -5 10 -11 10 -5 0 -7
-4 -4 -10z"/>
<path d="M2178 53 c7 -3 16 -2 19 1 4 3 -2 6 -13 5 -11 0 -14 -3 -6 -6z"/>
<path d="M2270 40 c-8 -5 -10 -10 -5 -10 6 0 17 5 25 10 8 5 11 10 5 10 -5 0
-17 -5 -25 -10z"/>
<path d="M2175 20 c-7 -11 9 -11 45 0 24 8 24 8 -7 9 -17 1 -35 -3 -38 -9z"/>
</g>
</svg>
